<?xml version="1.0" encoding="us-ascii" standalone="no"?><svg xmlns="http://www.w3.org/2000/svg" xmlns:xlink="http://www.w3.org/1999/xlink" contentStyleType="text/css" height="520px" preserveAspectRatio="none" style="width:1624px;height:520px;background:#FFFFFF;" version="1.1" viewBox="0 0 1624 520" width="1624px" zoomAndPan="magnify"><defs/><g><!--class AbstractEnemyAircraft--><g id="elem_AbstractEnemyAircraft"><rect codeLine="5" fill="#F1F1F1" height="159.7266" id="AbstractEnemyAircraft" rx="2.5" ry="2.5" style="stroke:#181818;stroke-width:0.5;" width="974" x="7" y="354"/><ellipse cx="419.75" cy="370" fill="#A9DCDF" rx="11" ry="11" style="stroke:#181818;stroke-width:1.0;"/><path d="M420.1719,370.4844 L417.6094,370.4844 L417.0781,372.7813 Q417.0156,373.1094 417.0156,373.2656 Q417.0156,373.4844 417.0625,373.6406 Q417.125,373.7969 417.4063,373.7969 L417.875,373.7969 L417.875,374.7344 L414.8906,374.7344 L414.8906,373.7969 L415.3438,373.7969 Q415.5156,373.7969 415.6406,373.7031 Q415.7656,373.5938 415.8125,373.2969 L418.4531,362.9688 L419.8594,362.5 L422.4375,373.2656 Q422.5469,373.5781 422.6719,373.6875 Q422.8125,373.7969 422.9844,373.7969 L423.4531,373.7969 L423.4531,374.7344 L420.0625,374.7344 L420.0625,373.7969 L420.5938,373.7969 Q420.8125,373.7969 420.8281,373.75 Q420.8594,373.6875 420.8594,373.6094 Q420.8594,373.3906 420.8125,373.2031 L420.1719,370.4844 Z M415.6094,374.3281 L415.6094,374.3281 Z M416.2813,374.3281 L416.2813,374.3281 Z M421,374.3281 L421,374.3281 Z M422.125,374.3281 L422.125,374.3281 Z M418.9375,364.3906 L419,364.3906 L417.8906,369.5469 L419.9844,369.5469 L418.9375,364.3906 Z " fill="#000000"/><text fill="#000000" font-family="sans-serif" font-size="14" font-style="italic" lengthAdjust="spacing" textLength="140" x="440.25" y="375.7969">AbstractEnemyAircraft</text><line style="stroke:#181818;stroke-width:0.5;" x1="8" x2="980" y1="386" y2="386"/><rect fill="none" height="6" style="stroke:#C82930;stroke-width:1.0;" width="6" x="15" y="397.8105"/><text fill="#000000" font-family="sans-serif" font-size="14" lengthAdjust="spacing" textLength="101" x="27" y="405.1074">propSpeedX: int</text><rect fill="none" height="6" style="stroke:#C82930;stroke-width:1.0;" width="6" x="15" y="416.4316"/><text fill="#000000" font-family="sans-serif" font-size="14" lengthAdjust="spacing" textLength="102" x="27" y="423.7285">propSpeedY: int</text><line style="stroke:#181818;stroke-width:0.5;" x1="8" x2="980" y1="431.2422" y2="431.2422"/><ellipse cx="18" cy="446.0527" fill="#84BE84" rx="3" ry="3" style="stroke:#038048;stroke-width:1.0;"/><text fill="#000000" font-family="sans-serif" font-size="14" lengthAdjust="spacing" textLength="948" x="27" y="450.3496">AbstractEnemyAircraft(double locationX, double locationY, double speedX, double speedY, int hp, int shootNum, int power, int direction, int bulletSpeed</text><ellipse cx="18" cy="464.6738" fill="#84BE84" rx="3" ry="3" style="stroke:#038048;stroke-width:1.0;"/><text fill="#000000" font-family="sans-serif" font-size="14" lengthAdjust="spacing" textLength="177" x="27" y="468.9707">dropProp(): List&lt;BaseProp&gt;</text><ellipse cx="18" cy="483.2949" fill="#84BE84" rx="3" ry="3" style="stroke:#038048;stroke-width:1.0;"/><text fill="#000000" font-family="sans-serif" font-size="14" lengthAdjust="spacing" textLength="158" x="27" y="487.5918">shoot(): List&lt;BaseBullet&gt;</text><ellipse cx="18" cy="501.916" fill="#84BE84" rx="3" ry="3" style="stroke:#038048;stroke-width:1.0;"/><text fill="#000000" font-family="sans-serif" font-size="14" lengthAdjust="spacing" textLength="90" x="27" y="506.2129">getScore(): int</text></g><!--class EnemyBullet--><g id="elem_EnemyBullet"><rect codeLine="18" fill="#F1F1F1" height="85.2422" id="EnemyBullet" rx="2.5" ry="2.5" style="stroke:#181818;stroke-width:0.5;" width="601" x="1016.5" y="391.5"/><ellipse cx="1273.75" cy="407.5" fill="#ADD1B2" rx="11" ry="11" style="stroke:#181818;stroke-width:1.0;"/><path d="M1273.0938,413.3594 Q1271.1094,413.3594 1269.9375,411.8906 Q1268.7813,410.4063 1268.7813,407.3281 Q1268.7813,404.7188 1270,402.9688 Q1271.2344,401.2188 1273.3594,401.2188 Q1273.8594,401.2188 1274.3906,401.3594 Q1274.8281,401.5469 1275.0938,401.5469 Q1275.3125,401.5469 1275.4063,401.5 Q1275.5156,401.4531 1275.9688,400.8594 L1276.7344,404.5938 L1275.8438,404.8594 Q1275.3906,403.4063 1274.7813,402.8125 Q1274.1875,402.2031 1273.2344,402.2031 Q1272.0156,402.2031 1271.2969,403.6406 Q1270.5781,405.0625 1270.5781,407.25 Q1270.5781,409.6563 1271.1875,410.9531 Q1271.8125,412.2344 1273.1719,412.2344 Q1274.125,412.2344 1274.8125,411.5469 Q1275.5,410.8438 1275.8281,409.3438 L1276.7344,409.75 Q1276.3281,411.4531 1275.3594,412.4063 Q1274.4063,413.3594 1273.0938,413.3594 Z " fill="#000000"/><text fill="#000000" font-family="sans-serif" font-size="14" lengthAdjust="spacing" textLength="78" x="1294.25" y="413.2969">EnemyBullet</text><line style="stroke:#181818;stroke-width:0.5;" x1="1017.5" x2="1616.5" y1="423.5" y2="423.5"/><line style="stroke:#181818;stroke-width:0.5;" x1="1017.5" x2="1616.5" y1="431.5" y2="431.5"/><ellipse cx="1027.5" cy="446.3105" fill="#84BE84" rx="3" ry="3" style="stroke:#038048;stroke-width:1.0;"/><text fill="#000000" font-family="sans-serif" font-size="14" lengthAdjust="spacing" textLength="575" x="1036.5" y="450.6074">EnemyBullet(double locationX, double locationY, double speedX, double speedY, int power)</text><ellipse cx="1027.5" cy="464.9316" fill="#84BE84" rx="3" ry="3" style="stroke:#038048;stroke-width:1.0;"/><text fill="#000000" font-family="sans-serif" font-size="14" lengthAdjust="spacing" textLength="141" x="1036.5" y="469.2285">update(int power):void</text></g><!--class BombValid--><g id="elem_BombValid"><rect codeLine="27" fill="#F1F1F1" height="159.7266" id="BombValid" rx="2.5" ry="2.5" style="stroke:#181818;stroke-width:0.5;" width="367" x="721.5" y="7"/><ellipse cx="867.25" cy="23" fill="#ADD1B2" rx="11" ry="11" style="stroke:#181818;stroke-width:1.0;"/><path d="M866.5938,28.8594 Q864.6094,28.8594 863.4375,27.3906 Q862.2813,25.9063 862.2813,22.8281 Q862.2813,20.2188 863.5,18.4688 Q864.7344,16.7188 866.8594,16.7188 Q867.3594,16.7188 867.8906,16.8594 Q868.3281,17.0469 868.5938,17.0469 Q868.8125,17.0469 868.9063,17 Q869.0156,16.9531 869.4688,16.3594 L870.2344,20.0938 L869.3438,20.3594 Q868.8906,18.9063 868.2813,18.3125 Q867.6875,17.7031 866.7344,17.7031 Q865.5156,17.7031 864.7969,19.1406 Q864.0781,20.5625 864.0781,22.75 Q864.0781,25.1563 864.6875,26.4531 Q865.3125,27.7344 866.6719,27.7344 Q867.625,27.7344 868.3125,27.0469 Q869,26.3438 869.3281,24.8438 L870.2344,25.25 Q869.8281,26.9531 868.8594,27.9063 Q867.9063,28.8594 866.5938,28.8594 Z " fill="#000000"/><text fill="#000000" font-family="sans-serif" font-size="14" lengthAdjust="spacing" textLength="67" x="887.75" y="28.7969">BombValid</text><line style="stroke:#181818;stroke-width:0.5;" x1="722.5" x2="1087.5" y1="39" y2="39"/><rect fill="none" height="6" style="stroke:#C82930;stroke-width:1.0;" width="6" x="729.5" y="50.8105"/><text fill="#000000" font-family="sans-serif" font-size="14" lengthAdjust="spacing" text-decoration="underline" textLength="236" x="741.5" y="58.1074">bombObservers: List&lt;PropObserver&gt;</text><line style="stroke:#181818;stroke-width:0.5;" x1="722.5" x2="1087.5" y1="65.6211" y2="65.6211"/><ellipse cx="732.5" cy="80.4316" fill="#84BE84" rx="3" ry="3" style="stroke:#038048;stroke-width:1.0;"/><text fill="#000000" font-family="sans-serif" font-size="14" lengthAdjust="spacing" text-decoration="underline" textLength="267" x="741.5" y="84.7285">getBombObservers(): List&lt;PropObserver&gt;</text><ellipse cx="732.5" cy="99.0527" fill="#84BE84" rx="3" ry="3" style="stroke:#038048;stroke-width:1.0;"/><text fill="#000000" font-family="sans-serif" font-size="14" lengthAdjust="spacing" text-decoration="underline" textLength="318" x="741.5" y="103.3496">addObserver(bombObserver: PropObserver): void</text><ellipse cx="732.5" cy="117.6738" fill="#84BE84" rx="3" ry="3" style="stroke:#038048;stroke-width:1.0;"/><text fill="#000000" font-family="sans-serif" font-size="14" lengthAdjust="spacing" text-decoration="underline" textLength="341" x="741.5" y="121.9707">removeObserver(bombObserver: PropObserver): void</text><ellipse cx="732.5" cy="136.2949" fill="#84BE84" rx="3" ry="3" style="stroke:#038048;stroke-width:1.0;"/><text fill="#000000" font-family="sans-serif" font-size="14" lengthAdjust="spacing" text-decoration="underline" textLength="158" x="741.5" y="140.5918">nodifyAll(power: int): void</text><ellipse cx="732.5" cy="154.916" fill="#84BE84" rx="3" ry="3" style="stroke:#038048;stroke-width:1.0;"/><text fill="#000000" font-family="sans-serif" font-size="14" lengthAdjust="spacing" text-decoration="underline" textLength="173" x="741.5" y="159.2129">bombWork(power: int): void</text></g><!--class PropObserver--><g id="elem_PropObserver"><rect codeLine="37" fill="#F1F1F1" height="66.6211" id="PropObserver" rx="2.5" ry="2.5" style="stroke:#181818;stroke-width:0.5;" width="167" x="821.5" y="227"/><ellipse cx="857.65" cy="243" fill="#B4A7E5" rx="11" ry="11" style="stroke:#181818;stroke-width:1.0;"/><path d="M854.2438,237.7813 L854.2438,236.8438 L860.0875,236.8438 L860.0875,237.7813 L858.2906,237.7813 Q858.1188,237.7813 858.0406,237.8438 Q857.9625,237.9063 857.9625,238.0469 L857.9625,247.5313 Q857.9625,247.6719 858.0406,247.7344 Q858.1188,247.7969 858.2906,247.7969 L860.0875,247.7969 L860.0875,248.7344 L854.2438,248.7344 L854.2438,247.7969 L856.0406,247.7969 Q856.2594,247.7969 856.3063,247.75 Q856.3688,247.6875 856.3688,247.5313 L856.3688,238.0469 Q856.3688,237.8906 856.3063,237.8438 Q856.2594,237.7813 856.0406,237.7813 L854.2438,237.7813 Z " fill="#000000"/><text fill="#000000" font-family="sans-serif" font-size="14" font-style="italic" lengthAdjust="spacing" textLength="88" x="876.35" y="248.7969">PropObserver</text><line style="stroke:#181818;stroke-width:0.5;" x1="822.5" x2="987.5" y1="259" y2="259"/><line style="stroke:#181818;stroke-width:0.5;" x1="822.5" x2="987.5" y1="267" y2="267"/><ellipse cx="832.5" cy="281.8105" fill="#84BE84" rx="3" ry="3" style="stroke:#038048;stroke-width:1.0;"/><text fill="#000000" font-family="sans-serif" font-size="14" lengthAdjust="spacing" textLength="141" x="841.5" y="286.1074">update(int power):void</text></g><!--reverse link PropObserver to AbstractEnemyAircraft--><g id="link_PropObserver_AbstractEnemyAircraft"><path codeLine="42" d="M810.1185,301.0923 C769.3585,318.1023 734.2,332.77 683.71,353.84 " fill="none" id="PropObserver-backto-AbstractEnemyAircraft" style="stroke:#181818;stroke-width:1.0;stroke-dasharray:7.0,7.0;"/><polygon fill="none" points="826.73,294.16,807.8077,295.5552,812.4293,306.6295,826.73,294.16" style="stroke:#181818;stroke-width:1.0;"/></g><!--reverse link PropObserver to EnemyBullet--><g id="link_PropObserver_EnemyBullet"><path codeLine="43" d="M1000.078,301.0768 C1066.388,328.6768 1145.14,361.46 1216.93,391.34 " fill="none" id="PropObserver-backto-EnemyBullet" style="stroke:#181818;stroke-width:1.0;stroke-dasharray:7.0,7.0;"/><polygon fill="none" points="983.46,294.16,997.7724,306.6162,1002.3836,295.5375,983.46,294.16" style="stroke:#181818;stroke-width:1.0;"/></g><!--link BombValid to PropObserver--><g id="link_BombValid_PropObserver"><path codeLine="44" d="M905,179.22 C905,200.29 905,203.88 905,220.88 " fill="none" id="BombValid-PropObserver" style="stroke:#181818;stroke-width:1.0;"/><polygon fill="none" points="905,167.22,901,173.22,905,179.22,909,173.22,905,167.22" style="stroke:#181818;stroke-width:1.0;"/><polygon fill="#181818" points="905,226.88,909,217.88,905,221.88,901,217.88,905,226.88" style="stroke:#181818;stroke-width:1.0;"/></g><!--SRC=[hLDDQy904BtdL-ojaJPw3o8OwAsqXKAhnytkg4itcMLtOn7hV-z-HCsMG44Qa3XlthoPUQDtEskLAMSp9MbhkqPE6JOp9gan1HTqgscJkOVMnchAB0aPikp3nnQQmr9efkd6acD6I46KHlMc0FYg9AArARQEc0FlnqLoZbqjWKXar0fiLm_a5xA-82PqIKENTGt8JiMtsI7Qvww9aS8lqF4h5ngObujXtKa9DemOPkDku5VtoISbUHB6pYjgm0EBa0woIQuA0Z6xTKeCDNY2t_Ra7SoYSs7PIFPsUVe0-gVjmvwJNhvJd5h8htYvHy7xeVgfAcpgToe5xszuDDPrOoTIkyHBRK3lGPj-NM_36Ll4KrxuRlLgM7BnA2rAQYZdvqm-x5UIOP4J2dCdfHeQtCEjrIroiJaifSo3CU5OeqIl-u7wSuJdR7GHw0rba7Gy_ct_a4xctzFf-5zYX3VuoMJNss5HB98Puecp7m00]--></g></svg>