<?xml version="1.0" encoding="us-ascii" standalone="no"?><svg xmlns="http://www.w3.org/2000/svg" xmlns:xlink="http://www.w3.org/1999/xlink" contentStyleType="text/css" height="1119px" preserveAspectRatio="none" style="width:640px;height:1119px;background:#FFFFFF;" version="1.1" viewBox="0 0 640 1119" width="640px" zoomAndPan="magnify"><defs/><g><!--class Game--><g id="elem_Game"><rect codeLine="5" fill="#F1F1F1" height="979.0547" id="Game" rx="2.5" ry="2.5" style="stroke:#181818;stroke-width:0.5;" width="624" x="9" y="7"/><ellipse cx="297.75" cy="23" fill="#A9DCDF" rx="11" ry="11" style="stroke:#181818;stroke-width:1.0;"/><path d="M298.1719,23.4844 L295.6094,23.4844 L295.0781,25.7813 Q295.0156,26.1094 295.0156,26.2656 Q295.0156,26.4844 295.0625,26.6406 Q295.125,26.7969 295.4063,26.7969 L295.875,26.7969 L295.875,27.7344 L292.8906,27.7344 L292.8906,26.7969 L293.3438,26.7969 Q293.5156,26.7969 293.6406,26.7031 Q293.7656,26.5938 293.8125,26.2969 L296.4531,15.9688 L297.8594,15.5 L300.4375,26.2656 Q300.5469,26.5781 300.6719,26.6875 Q300.8125,26.7969 300.9844,26.7969 L301.4531,26.7969 L301.4531,27.7344 L298.0625,27.7344 L298.0625,26.7969 L298.5938,26.7969 Q298.8125,26.7969 298.8281,26.75 Q298.8594,26.6875 298.8594,26.6094 Q298.8594,26.3906 298.8125,26.2031 L298.1719,23.4844 Z M293.6094,27.3281 L293.6094,27.3281 Z M294.2813,27.3281 L294.2813,27.3281 Z M299,27.3281 L299,27.3281 Z M300.125,27.3281 L300.125,27.3281 Z M296.9375,17.3906 L297,17.3906 L295.8906,22.5469 L297.9844,22.5469 L296.9375,17.3906 Z " fill="#000000"/><text fill="#000000" font-family="sans-serif" font-size="14" font-style="italic" lengthAdjust="spacing" textLength="38" x="318.25" y="28.7969">Game</text><line style="stroke:#181818;stroke-width:0.5;" x1="10" x2="632" y1="39" y2="39"/><polygon fill="none" points="20,48.8105,24,52.8105,20,56.8105,16,52.8105" style="stroke:#B38D22;stroke-width:1.0;"/><text fill="#000000" font-family="sans-serif" font-size="14" lengthAdjust="spacing" textLength="109" x="29" y="58.1074">enemyshootT: int</text><polygon fill="none" points="20,67.4316,24,71.4316,20,75.4316,16,71.4316" style="stroke:#B38D22;stroke-width:1.0;"/><text fill="#000000" font-family="sans-serif" font-size="14" lengthAdjust="spacing" textLength="114" x="29" y="76.7285">enemycreateT: int</text><polygon fill="none" points="20,86.0527,24,90.0527,20,94.0527,16,90.0527" style="stroke:#B38D22;stroke-width:1.0;"/><text fill="#000000" font-family="sans-serif" font-size="14" lengthAdjust="spacing" textLength="139" x="29" y="95.3496">enemyMaxNumber: int</text><ellipse cx="20" cy="109.6738" fill="none" rx="3" ry="3" style="stroke:#038048;stroke-width:1.0;"/><text fill="#000000" font-family="sans-serif" font-size="14" lengthAdjust="spacing" textLength="96" x="29" y="113.9707">heroshootT: int</text><polygon fill="none" points="20,123.2949,24,127.2949,20,131.2949,16,127.2949" style="stroke:#B38D22;stroke-width:1.0;"/><text fill="#000000" font-family="sans-serif" font-size="14" lengthAdjust="spacing" textLength="124" x="29" y="132.5918">bossMode: boolean</text><polygon fill="none" points="20,141.916,24,145.916,20,149.916,16,145.916" style="stroke:#B38D22;stroke-width:1.0;"/><text fill="#000000" font-family="sans-serif" font-size="14" lengthAdjust="spacing" textLength="144" x="29" y="151.2129">moreDifficulty: boolean</text><polygon fill="none" points="20,160.5371,24,164.5371,20,168.5371,16,164.5371" style="stroke:#B38D22;stroke-width:1.0;"/><text fill="#000000" font-family="sans-serif" font-size="14" lengthAdjust="spacing" textLength="136" x="29" y="169.834">greaterBoss: boolean</text><polygon fill="none" points="20,179.1582,24,183.1582,20,187.1582,16,183.1582" style="stroke:#B38D22;stroke-width:1.0;"/><text fill="#000000" font-family="sans-serif" font-size="14" lengthAdjust="spacing" textLength="132" x="29" y="188.4551">scoreCreateBoss: int</text><rect fill="none" height="6" style="stroke:#C82930;stroke-width:1.0;" width="6" x="17" y="199.7793"/><text fill="#000000" font-family="sans-serif" font-size="14" lengthAdjust="spacing" textLength="135" x="29" y="207.0762">enemyshootcount: int</text><rect fill="none" height="6" style="stroke:#C82930;stroke-width:1.0;" width="6" x="17" y="218.4004"/><text fill="#000000" font-family="sans-serif" font-size="14" lengthAdjust="spacing" textLength="140" x="29" y="225.6973">enemycreatecount: int</text><rect fill="none" height="6" style="stroke:#C82930;stroke-width:1.0;" width="6" x="17" y="237.0215"/><text fill="#000000" font-family="sans-serif" font-size="14" lengthAdjust="spacing" textLength="122" x="29" y="244.3184">heroshootcount: int</text><rect fill="none" height="6" style="stroke:#C82930;stroke-width:1.0;" width="6" x="17" y="255.6426"/><text fill="#000000" font-family="sans-serif" font-size="14" lengthAdjust="spacing" textLength="231" x="29" y="262.9395">bgMusicThread: AlwaysMusicThread</text><rect fill="none" height="6" style="stroke:#C82930;stroke-width:1.0;" width="6" x="17" y="274.2637"/><text fill="#000000" font-family="sans-serif" font-size="14" lengthAdjust="spacing" textLength="228" x="29" y="281.5605">endMusicThread: BaseMusicThread</text><ellipse cx="20" cy="295.8848" fill="none" rx="3" ry="3" style="stroke:#038048;stroke-width:1.0;"/><text fill="#000000" font-family="sans-serif" font-size="14" lengthAdjust="spacing" text-decoration="underline" textLength="170" x="29" y="300.1816">ELITE_POSIBILITY: double</text><ellipse cx="20" cy="314.5059" fill="none" rx="3" ry="3" style="stroke:#038048;stroke-width:1.0;"/><text fill="#000000" font-family="sans-serif" font-size="14" lengthAdjust="spacing" text-decoration="underline" textLength="213" x="29" y="318.8027">ELITE_PLUS_POSIBILITY: double</text><rect fill="none" height="6" style="stroke:#C82930;stroke-width:1.0;" width="6" x="17" y="330.127"/><text fill="#000000" font-family="sans-serif" font-size="14" lengthAdjust="spacing" textLength="126" x="29" y="337.4238">backGroundTop: int</text><rect fill="none" height="6" style="stroke:#C82930;stroke-width:1.0;" width="6" x="17" y="348.748"/><text fill="#000000" font-family="sans-serif" font-size="14" lengthAdjust="spacing" textLength="278" x="29" y="356.0449">executorService: ScheduledExecutorService</text><rect fill="none" height="6" style="stroke:#C82930;stroke-width:1.0;" width="6" x="17" y="367.3691"/><text fill="#000000" font-family="sans-serif" font-size="14" lengthAdjust="spacing" textLength="95" x="29" y="374.666">timeInterval: int</text><rect fill="none" height="6" style="stroke:#C82930;stroke-width:1.0;" width="6" x="17" y="385.9902"/><text fill="#000000" font-family="sans-serif" font-size="14" lengthAdjust="spacing" textLength="157" x="29" y="393.2871">heroAircraft: HeroAircraft</text><ellipse cx="20" cy="407.6113" fill="none" rx="3" ry="3" style="stroke:#038048;stroke-width:1.0;"/><text fill="#000000" font-family="sans-serif" font-size="14" lengthAdjust="spacing" text-decoration="underline" textLength="280" x="29" y="411.9082">enemyAircrafts: List&lt;AbstractEnemyAircraft&gt;</text><rect fill="none" height="6" style="stroke:#C82930;stroke-width:1.0;" width="6" x="17" y="423.2324"/><text fill="#000000" font-family="sans-serif" font-size="14" lengthAdjust="spacing" textLength="184" x="29" y="430.5293">heroBullets: List&lt;BaseBullet&gt;</text><rect fill="none" height="6" style="stroke:#C82930;stroke-width:1.0;" width="6" x="17" y="441.8535"/><text fill="#000000" font-family="sans-serif" font-size="14" lengthAdjust="spacing" textLength="197" x="29" y="449.1504">enemyBullets: List&lt;BaseBullet&gt;</text><rect fill="none" height="6" style="stroke:#C82930;stroke-width:1.0;" width="6" x="17" y="460.4746"/><text fill="#000000" font-family="sans-serif" font-size="14" lengthAdjust="spacing" textLength="144" x="29" y="467.7715">props: List&lt;BaseProp&gt;</text><rect fill="none" height="6" style="stroke:#C82930;stroke-width:1.0;" width="6" x="17" y="479.0957"/><text fill="#000000" font-family="sans-serif" font-size="14" lengthAdjust="spacing" text-decoration="underline" textLength="58" x="29" y="486.3926">score: int</text><rect fill="none" height="6" style="stroke:#C82930;stroke-width:1.0;" width="6" x="17" y="497.7168"/><text fill="#000000" font-family="sans-serif" font-size="14" lengthAdjust="spacing" textLength="79" x="29" y="505.0137">prescore: int</text><rect fill="none" height="6" style="stroke:#C82930;stroke-width:1.0;" width="6" x="17" y="516.3379"/><text fill="#000000" font-family="sans-serif" font-size="14" lengthAdjust="spacing" textLength="49" x="29" y="523.6348">time: int</text><rect fill="none" height="6" style="stroke:#C82930;stroke-width:1.0;" width="6" x="17" y="534.959"/><text fill="#000000" font-family="sans-serif" font-size="14" lengthAdjust="spacing" textLength="75" x="29" y="542.2559">preTime: int</text><rect fill="none" height="6" style="stroke:#C82930;stroke-width:1.0;" width="6" x="17" y="553.5801"/><text fill="#000000" font-family="sans-serif" font-size="14" lengthAdjust="spacing" textLength="109" x="29" y="560.877">cycleDuration: int</text><rect fill="none" height="6" style="stroke:#C82930;stroke-width:1.0;" width="6" x="17" y="572.2012"/><text fill="#000000" font-family="sans-serif" font-size="14" lengthAdjust="spacing" textLength="86" x="29" y="579.498">cycleTime: int</text><rect fill="none" height="6" style="stroke:#C82930;stroke-width:1.0;" width="6" x="17" y="590.8223"/><text fill="#000000" font-family="sans-serif" font-size="14" lengthAdjust="spacing" textLength="153" x="29" y="598.1191">gameOverFlag: boolean</text><rect fill="none" height="6" style="stroke:#C82930;stroke-width:1.0;" width="6" x="17" y="609.4434"/><text fill="#000000" font-family="sans-serif" font-size="14" lengthAdjust="spacing" text-decoration="underline" textLength="83" x="29" y="616.7402">music_on: int</text><line style="stroke:#181818;stroke-width:0.5;" x1="10" x2="632" y1="624.2539" y2="624.2539"/><ellipse cx="20" cy="639.0645" fill="#84BE84" rx="3" ry="3" style="stroke:#038048;stroke-width:1.0;"/><text fill="#000000" font-family="sans-serif" font-size="14" lengthAdjust="spacing" textLength="113" x="29" y="643.3613">getMusic_on(): int</text><ellipse cx="20" cy="657.6855" fill="#84BE84" rx="3" ry="3" style="stroke:#038048;stroke-width:1.0;"/><text fill="#000000" font-family="sans-serif" font-size="14" lengthAdjust="spacing" textLength="138" x="29" y="661.9824">setMusic_on(int): void</text><ellipse cx="20" cy="676.3066" fill="#84BE84" rx="3" ry="3" style="stroke:#038048;stroke-width:1.0;"/><text fill="#000000" font-family="sans-serif" font-size="14" lengthAdjust="spacing" textLength="45" x="29" y="680.6035">game()</text><ellipse cx="20" cy="694.9277" fill="#84BE84" rx="3" ry="3" style="stroke:#038048;stroke-width:1.0;"/><text fill="#000000" font-family="sans-serif" font-size="14" lengthAdjust="spacing" textLength="78" x="29" y="699.2246">action():void</text><ellipse cx="20" cy="713.5488" fill="#84BE84" rx="3" ry="3" style="stroke:#038048;stroke-width:1.0;"/><text fill="#000000" font-family="sans-serif" font-size="14" lengthAdjust="spacing" textLength="112" x="29" y="717.8457">setDifficulty():void</text><rect fill="#F24D5C" height="6" style="stroke:#C82930;stroke-width:1.0;" width="6" x="17" y="729.1699"/><text fill="#000000" font-family="sans-serif" font-size="14" lengthAdjust="spacing" textLength="123" x="29" y="736.4668">createEnemy():void</text><rect fill="#F24D5C" height="6" style="stroke:#C82930;stroke-width:1.0;" width="6" x="17" y="747.791"/><text fill="#000000" font-family="sans-serif" font-size="14" lengthAdjust="spacing" textLength="253" x="29" y="755.0879">timeCountAndNewCycleJudge():boolean</text><rect fill="#F24D5C" height="6" style="stroke:#C82930;stroke-width:1.0;" width="6" x="17" y="766.4121"/><text fill="#000000" font-family="sans-serif" font-size="14" lengthAdjust="spacing" textLength="145" x="29" y="773.709">heroShootAction():void</text><rect fill="#F24D5C" height="6" style="stroke:#C82930;stroke-width:1.0;" width="6" x="17" y="785.0332"/><text fill="#000000" font-family="sans-serif" font-size="14" lengthAdjust="spacing" textLength="158" x="29" y="792.3301">enemyShootAction():void</text><rect fill="#F24D5C" height="6" style="stroke:#C82930;stroke-width:1.0;" width="6" x="17" y="803.6543"/><text fill="#000000" font-family="sans-serif" font-size="14" lengthAdjust="spacing" textLength="154" x="29" y="810.9512">bulletsMoveAction():void</text><rect fill="#F24D5C" height="6" style="stroke:#C82930;stroke-width:1.0;" width="6" x="17" y="822.2754"/><text fill="#000000" font-family="sans-serif" font-size="14" lengthAdjust="spacing" textLength="164" x="29" y="829.5723">aircraftsMoveAction():void</text><rect fill="#F24D5C" height="6" style="stroke:#C82930;stroke-width:1.0;" width="6" x="17" y="840.8965"/><text fill="#000000" font-family="sans-serif" font-size="14" lengthAdjust="spacing" textLength="149" x="29" y="848.1934">propsMoveAction():void</text><rect fill="#F24D5C" height="6" style="stroke:#C82930;stroke-width:1.0;" width="6" x="17" y="859.5176"/><text fill="#000000" font-family="sans-serif" font-size="14" lengthAdjust="spacing" textLength="154" x="29" y="866.8145">crashCheckAction():void</text><rect fill="#F24D5C" height="6" style="stroke:#C82930;stroke-width:1.0;" width="6" x="17" y="878.1387"/><text fill="#000000" font-family="sans-serif" font-size="14" lengthAdjust="spacing" textLength="157" x="29" y="885.4355">postProcessAction():void</text><ellipse cx="20" cy="899.7598" fill="#84BE84" rx="3" ry="3" style="stroke:#038048;stroke-width:1.0;"/><text fill="#000000" font-family="sans-serif" font-size="14" lengthAdjust="spacing" textLength="140" x="29" y="904.0566">paint(Graphics g):void</text><rect fill="#F24D5C" height="6" style="stroke:#C82930;stroke-width:1.0;" width="6" x="17" y="915.3809"/><text fill="#000000" font-family="sans-serif" font-size="14" lengthAdjust="spacing" textLength="598" x="29" y="922.6777">paintImageWithPositionRevised(Graphics g, List&lt;? extends AbstractFlyingObject&gt; objects):void</text><rect fill="#F24D5C" height="6" style="stroke:#C82930;stroke-width:1.0;" width="6" x="17" y="934.002"/><text fill="#000000" font-family="sans-serif" font-size="14" lengthAdjust="spacing" textLength="405" x="29" y="941.2988">rotateImage(BufferedImage image, double angle):BufferedImage</text><rect fill="#F24D5C" height="6" style="stroke:#C82930;stroke-width:1.0;" width="6" x="17" y="952.623"/><text fill="#000000" font-family="sans-serif" font-size="14" lengthAdjust="spacing" textLength="225" x="29" y="959.9199">paintScoreAndLife(Graphics g):void</text><rect fill="#F24D5C" height="6" style="stroke:#C82930;stroke-width:1.0;" width="6" x="17" y="971.2441"/><text fill="#000000" font-family="sans-serif" font-size="14" lengthAdjust="spacing" textLength="179" x="29" y="978.541">paintHpBar(Graphics g):void</text></g><!--class SimpleGame--><g id="elem_SimpleGame"><rect codeLine="58" fill="#F1F1F1" height="66.6211" id="SimpleGame" rx="2.5" ry="2.5" style="stroke:#181818;stroke-width:0.5;" width="138" x="79" y="1046"/><ellipse cx="105.7" cy="1062" fill="#ADD1B2" rx="11" ry="11" style="stroke:#181818;stroke-width:1.0;"/><path d="M105.0438,1067.8594 Q103.0594,1067.8594 101.8875,1066.3906 Q100.7313,1064.9063 100.7313,1061.8281 Q100.7313,1059.2188 101.95,1057.4688 Q103.1844,1055.7188 105.3094,1055.7188 Q105.8094,1055.7188 106.3406,1055.8594 Q106.7781,1056.0469 107.0438,1056.0469 Q107.2625,1056.0469 107.3563,1056 Q107.4656,1055.9531 107.9188,1055.3594 L108.6844,1059.0938 L107.7938,1059.3594 Q107.3406,1057.9063 106.7313,1057.3125 Q106.1375,1056.7031 105.1844,1056.7031 Q103.9656,1056.7031 103.2469,1058.1406 Q102.5281,1059.5625 102.5281,1061.75 Q102.5281,1064.1563 103.1375,1065.4531 Q103.7625,1066.7344 105.1219,1066.7344 Q106.075,1066.7344 106.7625,1066.0469 Q107.45,1065.3438 107.7781,1063.8438 L108.6844,1064.25 Q108.2781,1065.9531 107.3094,1066.9063 Q106.3563,1067.8594 105.0438,1067.8594 Z " fill="#000000"/><text fill="#000000" font-family="sans-serif" font-size="14" lengthAdjust="spacing" textLength="80" x="122.3" y="1067.7969">SimpleGame</text><line style="stroke:#181818;stroke-width:0.5;" x1="80" x2="216" y1="1078" y2="1078"/><line style="stroke:#181818;stroke-width:0.5;" x1="80" x2="216" y1="1086" y2="1086"/><ellipse cx="90" cy="1100.8105" fill="#84BE84" rx="3" ry="3" style="stroke:#038048;stroke-width:1.0;"/><text fill="#000000" font-family="sans-serif" font-size="14" lengthAdjust="spacing" textLength="112" x="99" y="1105.1074">setDifficulty():void</text></g><!--class NormalGame--><g id="elem_NormalGame"><rect codeLine="61" fill="#F1F1F1" height="66.6211" id="NormalGame" rx="2.5" ry="2.5" style="stroke:#181818;stroke-width:0.5;" width="138" x="252" y="1046"/><ellipse cx="277.8" cy="1062" fill="#ADD1B2" rx="11" ry="11" style="stroke:#181818;stroke-width:1.0;"/><path d="M277.1438,1067.8594 Q275.1594,1067.8594 273.9875,1066.3906 Q272.8313,1064.9063 272.8313,1061.8281 Q272.8313,1059.2188 274.05,1057.4688 Q275.2844,1055.7188 277.4094,1055.7188 Q277.9094,1055.7188 278.4406,1055.8594 Q278.8781,1056.0469 279.1438,1056.0469 Q279.3625,1056.0469 279.4563,1056 Q279.5656,1055.9531 280.0188,1055.3594 L280.7844,1059.0938 L279.8938,1059.3594 Q279.4406,1057.9063 278.8313,1057.3125 Q278.2375,1056.7031 277.2844,1056.7031 Q276.0656,1056.7031 275.3469,1058.1406 Q274.6281,1059.5625 274.6281,1061.75 Q274.6281,1064.1563 275.2375,1065.4531 Q275.8625,1066.7344 277.2219,1066.7344 Q278.175,1066.7344 278.8625,1066.0469 Q279.55,1065.3438 279.8781,1063.8438 L280.7844,1064.25 Q280.3781,1065.9531 279.4094,1066.9063 Q278.4563,1067.8594 277.1438,1067.8594 Z " fill="#000000"/><text fill="#000000" font-family="sans-serif" font-size="14" lengthAdjust="spacing" textLength="82" x="294.2" y="1067.7969">NormalGame</text><line style="stroke:#181818;stroke-width:0.5;" x1="253" x2="389" y1="1078" y2="1078"/><line style="stroke:#181818;stroke-width:0.5;" x1="253" x2="389" y1="1086" y2="1086"/><ellipse cx="263" cy="1100.8105" fill="#84BE84" rx="3" ry="3" style="stroke:#038048;stroke-width:1.0;"/><text fill="#000000" font-family="sans-serif" font-size="14" lengthAdjust="spacing" textLength="112" x="272" y="1105.1074">setDifficulty():void</text></g><!--class HardGame--><g id="elem_HardGame"><rect codeLine="64" fill="#F1F1F1" height="66.6211" id="HardGame" rx="2.5" ry="2.5" style="stroke:#181818;stroke-width:0.5;" width="138" x="425" y="1046"/><ellipse cx="457.1" cy="1062" fill="#ADD1B2" rx="11" ry="11" style="stroke:#181818;stroke-width:1.0;"/><path d="M456.4438,1067.8594 Q454.4594,1067.8594 453.2875,1066.3906 Q452.1313,1064.9063 452.1313,1061.8281 Q452.1313,1059.2188 453.35,1057.4688 Q454.5844,1055.7188 456.7094,1055.7188 Q457.2094,1055.7188 457.7406,1055.8594 Q458.1781,1056.0469 458.4438,1056.0469 Q458.6625,1056.0469 458.7563,1056 Q458.8656,1055.9531 459.3188,1055.3594 L460.0844,1059.0938 L459.1938,1059.3594 Q458.7406,1057.9063 458.1313,1057.3125 Q457.5375,1056.7031 456.5844,1056.7031 Q455.3656,1056.7031 454.6469,1058.1406 Q453.9281,1059.5625 453.9281,1061.75 Q453.9281,1064.1563 454.5375,1065.4531 Q455.1625,1066.7344 456.5219,1066.7344 Q457.475,1066.7344 458.1625,1066.0469 Q458.85,1065.3438 459.1781,1063.8438 L460.0844,1064.25 Q459.6781,1065.9531 458.7094,1066.9063 Q457.7563,1067.8594 456.4438,1067.8594 Z " fill="#000000"/><text fill="#000000" font-family="sans-serif" font-size="14" lengthAdjust="spacing" textLength="68" x="474.9" y="1067.7969">HardGame</text><line style="stroke:#181818;stroke-width:0.5;" x1="426" x2="562" y1="1078" y2="1078"/><line style="stroke:#181818;stroke-width:0.5;" x1="426" x2="562" y1="1086" y2="1086"/><ellipse cx="436" cy="1100.8105" fill="#84BE84" rx="3" ry="3" style="stroke:#038048;stroke-width:1.0;"/><text fill="#000000" font-family="sans-serif" font-size="14" lengthAdjust="spacing" textLength="112" x="445" y="1105.1074">setDifficulty():void</text></g><!--reverse link Game to SimpleGame--><g id="link_Game_SimpleGame"><path codeLine="68" d="M170.3737,1003.3716 C163.2937,1027.1516 162.35,1030.31 157.73,1045.84 " fill="none" id="Game-backto-SimpleGame" style="stroke:#181818;stroke-width:1.0;"/><polygon fill="none" points="175.51,986.12,164.6232,1001.6595,176.1242,1005.0837,175.51,986.12" style="stroke:#181818;stroke-width:1.0;"/></g><!--reverse link Game to NormalGame--><g id="link_Game_NormalGame"><path codeLine="69" d="M321,1004.12 C321,1027.9 321,1030.31 321,1045.84 " fill="none" id="Game-backto-NormalGame" style="stroke:#181818;stroke-width:1.0;"/><polygon fill="none" points="321,986.12,315,1004.12,327,1004.12,321,986.12" style="stroke:#181818;stroke-width:1.0;"/></g><!--reverse link Game to HardGame--><g id="link_Game_HardGame"><path codeLine="70" d="M471.6263,1003.3716 C478.7063,1027.1516 479.65,1030.31 484.27,1045.84 " fill="none" id="Game-backto-HardGame" style="stroke:#181818;stroke-width:1.0;"/><polygon fill="none" points="466.49,986.12,465.8758,1005.0837,477.3768,1001.6595,466.49,986.12" style="stroke:#181818;stroke-width:1.0;"/></g><!--SRC=[ZLLTRzem57tdLrZQmwXQndjKTG9A2nEqrS8qxQbox4lYrOaZsw557VzzrmuG9wLLUG3xd7jzluxDrypQqaJ3OIbfOQjSVcCg7p99ZHbmGLDDynv-Q6AifimIpv1RcWDvxH7oXK01-TPaIjbLH4HX6v1fe1Qww9A-t5Lv0lg0dvCCjEgUa2XZbef3X2ibWHOUpPM6Qx5U2rP9ksrpgG-dn-ZO9Wn3hubdQxAECGXIPwegR8Ueq-ymnrGxU98kAoFOAaCd7f6HVAPR4q3xOtdBQamDj6tEoQknr0gs8zF5V3LzVBYFv-CvBlz4XAigaN3IQl4hFcsAcL7sTAinMxvIPL3Y2x3AAXs3tWY6ROvP1hoImATjnbjRaSEymEvkg6mtOoGqqtIDhPW5ktQIlfq72lk_4CPUZlQAceRarV7SSIKb78rTfshagXdGnoQbLcN8FU2-PevvUM4qvPGQEeWhkyMlMW3RCWdNbSRJLD61svOftfVx3UWRITDGd44okHF2OtFEEKd1BlTW_wo1JG0ZXin6YLeyBap_p2-niyBx7KdqQwvEGs2-NkX-3Y7iYfyubOyAVWVF4rVLZugd624AAt3JYjsL67L2xiVq3fVKqrkg3RmbwK4ifsa_szCKkfbiaW5xEk6cZ4KPC31czAOz9SLczcyrBJF134b3FqVDSvh2Rs6p1sM4S_u96s601ouNjTg-u-MoUDSDEMZyHcv5aTudVu7PAwByhma2Q8KY01-XFwxMQz30_Ou8ztsnly-45gc4iwXbqcGOE_7Yi1PY3HyKCYl7LB_bTxrU_RR78Yybk1VUFV3lAcUtDxzJEgVoq-OpgladZ7l-7-Rots0Gv1E0JTG0F9pT-my0]--></g></svg>