<?xml version="1.0" encoding="us-ascii" standalone="no"?><svg xmlns="http://www.w3.org/2000/svg" xmlns:xlink="http://www.w3.org/1999/xlink" contentStyleType="text/css" height="327.9px" preserveAspectRatio="none" style="width:943px;height:327px;background:#FFFFFF;" version="1.1" viewBox="0 0 943 327" width="943.2px" zoomAndPan="magnify"><defs/><g><!--class AbstractFlyingObject--><g id="elem_AbstractFlyingObject"><rect codeLine="3" fill="#F1F1F1" height="126.1266" id="AbstractFlyingObject" rx="0.75" ry="0.75" style="stroke:#181818;stroke-width:0.15;" width="143.1" x="232.05" y="2.1"/><ellipse cx="282.675" cy="6.9" fill="#A9DCDF" rx="3.3" ry="3.3" style="stroke:#181818;stroke-width:0.3;"/><path d="M282.8016,7.0453 L282.0328,7.0453 L281.8734,7.7344 Q281.8547,7.8328 281.8547,7.8797 Q281.8547,7.9453 281.8688,7.9922 Q281.8875,8.0391 281.9719,8.0391 L282.1125,8.0391 L282.1125,8.3203 L281.2172,8.3203 L281.2172,8.0391 L281.3531,8.0391 Q281.4047,8.0391 281.4422,8.0109 Q281.4797,7.9781 281.4938,7.8891 L282.2859,4.7906 L282.7078,4.65 L283.4813,7.8797 Q283.5141,7.9734 283.5516,8.0063 Q283.5938,8.0391 283.6453,8.0391 L283.7859,8.0391 L283.7859,8.3203 L282.7688,8.3203 L282.7688,8.0391 L282.9281,8.0391 Q282.9938,8.0391 282.9984,8.025 Q283.0078,8.0063 283.0078,7.9828 Q283.0078,7.9172 282.9938,7.8609 L282.8016,7.0453 Z M281.4328,8.1984 L281.4328,8.1984 Z M281.6344,8.1984 L281.6344,8.1984 Z M283.05,8.1984 L283.05,8.1984 Z M283.3875,8.1984 L283.3875,8.1984 Z M282.4313,5.2172 L282.45,5.2172 L282.1172,6.7641 L282.7453,6.7641 L282.4313,5.2172 Z " fill="#000000"/><text fill="#000000" font-family="sans-serif" font-size="4.2" font-style="italic" lengthAdjust="spacing" textLength="39.3" x="288.825" y="8.6391">AbstractFlyingObject</text><line style="stroke:#181818;stroke-width:0.15;" x1="232.35" x2="374.85" y1="11.7" y2="11.7"/><polygon fill="none" points="235.35,14.6432,236.55,15.8432,235.35,17.0432,234.15,15.8432" style="stroke:#B38D22;stroke-width:0.3;"/><text fill="#000000" font-family="sans-serif" font-size="4.2" lengthAdjust="spacing" textLength="22.8" x="238.05" y="17.4322">locationX:int</text><polygon fill="none" points="235.35,20.2295,236.55,21.4295,235.35,22.6295,234.15,21.4295" style="stroke:#B38D22;stroke-width:0.3;"/><text fill="#000000" font-family="sans-serif" font-size="4.2" lengthAdjust="spacing" textLength="23.1" x="238.05" y="23.0186">locationY:int</text><polygon fill="none" points="235.35,25.8158,236.55,27.0158,235.35,28.2158,234.15,27.0158" style="stroke:#B38D22;stroke-width:0.3;"/><text fill="#000000" font-family="sans-serif" font-size="4.2" lengthAdjust="spacing" textLength="19.8" x="238.05" y="28.6049">speedX:int</text><polygon fill="none" points="235.35,31.4021,236.55,32.6021,235.35,33.8021,234.15,32.6021" style="stroke:#B38D22;stroke-width:0.3;"/><text fill="#000000" font-family="sans-serif" font-size="4.2" lengthAdjust="spacing" textLength="20.1" x="238.05" y="34.1912">speedY:int</text><polygon fill="none" points="235.35,36.9885,236.55,38.1885,235.35,39.3885,234.15,38.1885" style="stroke:#B38D22;stroke-width:0.3;"/><text fill="#000000" font-family="sans-serif" font-size="4.2" lengthAdjust="spacing" textLength="40.2" x="238.05" y="39.7775">image:BufferedImage</text><polygon fill="none" points="235.35,42.5748,236.55,43.7748,235.35,44.9748,234.15,43.7748" style="stroke:#B38D22;stroke-width:0.3;"/><text fill="#000000" font-family="sans-serif" font-size="4.2" lengthAdjust="spacing" textLength="15.3" x="238.05" y="45.3639">width:int</text><polygon fill="none" points="235.35,48.1611,236.55,49.3611,235.35,50.5611,234.15,49.3611" style="stroke:#B38D22;stroke-width:0.3;"/><text fill="#000000" font-family="sans-serif" font-size="4.2" lengthAdjust="spacing" textLength="17.4" x="238.05" y="50.9502">height:int</text><polygon fill="none" points="235.35,53.7475,236.55,54.9475,235.35,56.1475,234.15,54.9475" style="stroke:#B38D22;stroke-width:0.3;"/><text fill="#000000" font-family="sans-serif" font-size="4.2" lengthAdjust="spacing" textLength="28.8" x="238.05" y="56.5365">isValid:boolean</text><line style="stroke:#181818;stroke-width:0.15;" x1="232.35" x2="374.85" y1="58.7906" y2="58.7906"/><ellipse cx="235.35" cy="63.2338" fill="#84BE84" rx="0.9" ry="0.9" style="stroke:#038048;stroke-width:0.3;"/><text fill="#000000" font-family="sans-serif" font-size="4.2" lengthAdjust="spacing" textLength="135.3" x="238.05" y="64.5229">AbstractFlyingObject(int locationX, int locationY, int speedX, int speedY)</text><ellipse cx="235.35" cy="68.8201" fill="#84BE84" rx="0.9" ry="0.9" style="stroke:#038048;stroke-width:0.3;"/><text fill="#000000" font-family="sans-serif" font-size="4.2" lengthAdjust="spacing" textLength="26.1" x="238.05" y="70.1092">forward():void</text><ellipse cx="235.35" cy="74.4064" fill="#84BE84" rx="0.9" ry="0.9" style="stroke:#038048;stroke-width:0.3;"/><text fill="#000000" font-family="sans-serif" font-size="4.2" lengthAdjust="spacing" textLength="92.7" x="238.05" y="75.6955">crash(AbstractFlyingObject flyingObject):boolean</text><ellipse cx="235.35" cy="79.9928" fill="#84BE84" rx="0.9" ry="0.9" style="stroke:#038048;stroke-width:0.3;"/><text fill="#000000" font-family="sans-serif" font-size="4.2" lengthAdjust="spacing" textLength="99" x="238.05" y="81.2818">setLocation(double locationX, double locationY):void</text><ellipse cx="235.35" cy="85.5791" fill="#84BE84" rx="0.9" ry="0.9" style="stroke:#038048;stroke-width:0.3;"/><text fill="#000000" font-family="sans-serif" font-size="4.2" lengthAdjust="spacing" textLength="33.3" x="238.05" y="86.8682">getLocationX():int</text><ellipse cx="235.35" cy="91.1654" fill="#84BE84" rx="0.9" ry="0.9" style="stroke:#038048;stroke-width:0.3;"/><text fill="#000000" font-family="sans-serif" font-size="4.2" lengthAdjust="spacing" textLength="33.6" x="238.05" y="92.4545">getLocationY():int</text><ellipse cx="235.35" cy="96.7518" fill="#84BE84" rx="0.9" ry="0.9" style="stroke:#038048;stroke-width:0.3;"/><text fill="#000000" font-family="sans-serif" font-size="4.2" lengthAdjust="spacing" textLength="29.7" x="238.05" y="98.0408">getSpeedY():int</text><ellipse cx="235.35" cy="102.3381" fill="#84BE84" rx="0.9" ry="0.9" style="stroke:#038048;stroke-width:0.3;"/><text fill="#000000" font-family="sans-serif" font-size="4.2" lengthAdjust="spacing" textLength="49.2" x="238.05" y="103.6271">getImage():BufferedImage</text><ellipse cx="235.35" cy="107.9244" fill="#84BE84" rx="0.9" ry="0.9" style="stroke:#038048;stroke-width:0.3;"/><text fill="#000000" font-family="sans-serif" font-size="4.2" lengthAdjust="spacing" textLength="25.5" x="238.05" y="109.2135">getWidth():int</text><ellipse cx="235.35" cy="113.5107" fill="#84BE84" rx="0.9" ry="0.9" style="stroke:#038048;stroke-width:0.3;"/><text fill="#000000" font-family="sans-serif" font-size="4.2" lengthAdjust="spacing" textLength="26.7" x="238.05" y="114.7998">getHeight():int</text><ellipse cx="235.35" cy="119.0971" fill="#84BE84" rx="0.9" ry="0.9" style="stroke:#038048;stroke-width:0.3;"/><text fill="#000000" font-family="sans-serif" font-size="4.2" lengthAdjust="spacing" textLength="34.8" x="238.05" y="120.3861">notValid():boolean</text><ellipse cx="235.35" cy="124.6834" fill="#84BE84" rx="0.9" ry="0.9" style="stroke:#038048;stroke-width:0.3;"/><text fill="#000000" font-family="sans-serif" font-size="4.2" lengthAdjust="spacing" textLength="24.3" x="238.05" y="125.9725">vanish():void</text></g><!--class AbstractAircraft--><g id="elem_AbstractAircraft"><rect codeLine="27" fill="#F1F1F1" height="47.918" id="AbstractAircraft" rx="0.75" ry="0.75" style="stroke:#181818;stroke-width:0.15;" width="145.8" x="230.7" y="146.1"/><ellipse cx="287.775" cy="150.9" fill="#A9DCDF" rx="3.3" ry="3.3" style="stroke:#181818;stroke-width:0.3;"/><path d="M287.9016,151.0453 L287.1328,151.0453 L286.9734,151.7344 Q286.9547,151.8328 286.9547,151.8797 Q286.9547,151.9453 286.9688,151.9922 Q286.9875,152.0391 287.0719,152.0391 L287.2125,152.0391 L287.2125,152.3203 L286.3172,152.3203 L286.3172,152.0391 L286.4531,152.0391 Q286.5047,152.0391 286.5422,152.0109 Q286.5797,151.9781 286.5938,151.8891 L287.3859,148.7906 L287.8078,148.65 L288.5813,151.8797 Q288.6141,151.9734 288.6516,152.0063 Q288.6937,152.0391 288.7453,152.0391 L288.8859,152.0391 L288.8859,152.3203 L287.8688,152.3203 L287.8688,152.0391 L288.0281,152.0391 Q288.0938,152.0391 288.0984,152.025 Q288.1078,152.0063 288.1078,151.9828 Q288.1078,151.9172 288.0938,151.8609 L287.9016,151.0453 Z M286.5328,152.1984 L286.5328,152.1984 Z M286.7344,152.1984 L286.7344,152.1984 Z M288.15,152.1984 L288.15,152.1984 Z M288.4875,152.1984 L288.4875,152.1984 Z M287.5313,149.2172 L287.55,149.2172 L287.2172,150.7641 L287.8453,150.7641 L287.5313,149.2172 Z " fill="#000000"/><text fill="#000000" font-family="sans-serif" font-size="4.2" font-style="italic" lengthAdjust="spacing" textLength="29.1" x="293.925" y="152.6391">AbstractAircraft</text><line style="stroke:#181818;stroke-width:0.15;" x1="231" x2="376.2" y1="155.7" y2="155.7"/><polygon fill="none" points="234,158.6432,235.2,159.8432,234,161.0432,232.8,159.8432" style="stroke:#B38D22;stroke-width:0.3;"/><text fill="#000000" font-family="sans-serif" font-size="4.2" lengthAdjust="spacing" textLength="18.3" x="236.7" y="161.4322">maxHp:int</text><polygon fill="none" points="234,164.2295,235.2,165.4295,234,166.6295,232.8,165.4295" style="stroke:#B38D22;stroke-width:0.3;"/><text fill="#000000" font-family="sans-serif" font-size="4.2" lengthAdjust="spacing" textLength="10.5" x="236.7" y="167.0186">hp:int</text><line style="stroke:#181818;stroke-width:0.15;" x1="231" x2="376.2" y1="169.2727" y2="169.2727"/><ellipse cx="234" cy="173.7158" fill="#84BE84" rx="0.9" ry="0.9" style="stroke:#038048;stroke-width:0.3;"/><text fill="#000000" font-family="sans-serif" font-size="4.2" lengthAdjust="spacing" textLength="138" x="236.7" y="175.0049">AbstractAircraft(int locationX, int locationY, int speedX, int speedY, int hp)</text><ellipse cx="234" cy="179.3021" fill="#84BE84" rx="0.9" ry="0.9" style="stroke:#038048;stroke-width:0.3;"/><text fill="#000000" font-family="sans-serif" font-size="4.2" lengthAdjust="spacing" textLength="58.2" x="236.7" y="180.5912">decreaseHp(int decrease):void</text><ellipse cx="234" cy="184.8885" fill="#84BE84" rx="0.9" ry="0.9" style="stroke:#038048;stroke-width:0.3;"/><text fill="#000000" font-family="sans-serif" font-size="4.2" lengthAdjust="spacing" textLength="19.8" x="236.7" y="186.1775">getHp():int</text><ellipse cx="234" cy="190.4748" fill="#84BE84" rx="0.9" ry="0.9" style="stroke:#038048;stroke-width:0.3;"/><text fill="#000000" font-family="sans-serif" font-size="4.2" font-style="italic" lengthAdjust="spacing" textLength="46.2" x="236.7" y="191.7639">shoot():List&lt;BaseBullet&gt;</text></g><!--class AbstractEnemyAircraft--><g id="elem_AbstractEnemyAircraft"><rect codeLine="37" fill="#F1F1F1" height="19.9863" id="AbstractEnemyAircraft" rx="0.75" ry="0.75" style="stroke:#181818;stroke-width:0.15;" width="54" x="183.9" y="231.6"/><ellipse cx="189.48" cy="236.4" fill="#A9DCDF" rx="3.3" ry="3.3" style="stroke:#181818;stroke-width:0.3;"/><path d="M189.6066,236.5453 L188.8378,236.5453 L188.6784,237.2344 Q188.6597,237.3328 188.6597,237.3797 Q188.6597,237.4453 188.6738,237.4922 Q188.6925,237.5391 188.7769,237.5391 L188.9175,237.5391 L188.9175,237.8203 L188.0222,237.8203 L188.0222,237.5391 L188.1581,237.5391 Q188.2097,237.5391 188.2472,237.5109 Q188.2847,237.4781 188.2988,237.3891 L189.0909,234.2906 L189.5128,234.15 L190.2863,237.3797 Q190.3191,237.4734 190.3566,237.5063 Q190.3988,237.5391 190.4503,237.5391 L190.5909,237.5391 L190.5909,237.8203 L189.5738,237.8203 L189.5738,237.5391 L189.7331,237.5391 Q189.7988,237.5391 189.8034,237.525 Q189.8128,237.5063 189.8128,237.4828 Q189.8128,237.4172 189.7988,237.3609 L189.6066,236.5453 Z M188.2378,237.6984 L188.2378,237.6984 Z M188.4394,237.6984 L188.4394,237.6984 Z M189.855,237.6984 L189.855,237.6984 Z M190.1925,237.6984 L190.1925,237.6984 Z M189.2363,234.7172 L189.255,234.7172 L188.9222,236.2641 L189.5503,236.2641 L189.2363,234.7172 Z " fill="#000000"/><text fill="#000000" font-family="sans-serif" font-size="4.2" font-style="italic" lengthAdjust="spacing" textLength="42" x="193.92" y="238.1391">AbstractEnemyAircraft</text><line style="stroke:#181818;stroke-width:0.15;" x1="184.2" x2="237.6" y1="241.2" y2="241.2"/><line style="stroke:#181818;stroke-width:0.15;" x1="184.2" x2="237.6" y1="243.6" y2="243.6"/><ellipse cx="187.2" cy="248.0432" fill="#84BE84" rx="0.9" ry="0.9" style="stroke:#038048;stroke-width:0.3;"/><text fill="#000000" font-family="sans-serif" font-size="4.2" font-style="italic" lengthAdjust="spacing" textLength="46.2" x="189.9" y="249.3322">shoot():List&lt;BaseBullet&gt;</text></g><!--class HeroAircraft--><g id="elem_HeroAircraft"><rect codeLine="43" fill="#F1F1F1" height="59.0906" id="HeroAircraft" rx="0.75" ry="0.75" style="stroke:#181818;stroke-width:0.15;" width="139.2" x="248.4" y="212.1"/><ellipse cx="305.475" cy="216.9" fill="#ADD1B2" rx="3.3" ry="3.3" style="stroke:#181818;stroke-width:0.3;"/><path d="M305.2781,218.6578 Q304.6828,218.6578 304.3313,218.2172 Q303.9844,217.7719 303.9844,216.8484 Q303.9844,216.0656 304.35,215.5406 Q304.7203,215.0156 305.3578,215.0156 Q305.5078,215.0156 305.6672,215.0578 Q305.7984,215.1141 305.8781,215.1141 Q305.9437,215.1141 305.9719,215.1 Q306.0047,215.0859 306.1406,214.9078 L306.3703,216.0281 L306.1031,216.1078 Q305.9672,215.6719 305.7844,215.4938 Q305.6063,215.3109 305.3203,215.3109 Q304.9547,215.3109 304.7391,215.7422 Q304.5234,216.1688 304.5234,216.825 Q304.5234,217.5469 304.7063,217.9359 Q304.8938,218.3203 305.3016,218.3203 Q305.5875,218.3203 305.7938,218.1141 Q306,217.9031 306.0984,217.4531 L306.3703,217.575 Q306.2484,218.0859 305.9578,218.3719 Q305.6719,218.6578 305.2781,218.6578 Z " fill="#000000"/><text fill="#000000" font-family="sans-serif" font-size="4.2" lengthAdjust="spacing" textLength="22.5" x="311.625" y="218.6391">HeroAircraft</text><line style="stroke:#181818;stroke-width:0.15;" x1="248.7" x2="387.3" y1="221.7" y2="221.7"/><rect fill="none" height="1.8" style="stroke:#C82930;stroke-width:0.3;" width="1.8" x="250.8" y="225.2432"/><text fill="#000000" font-family="sans-serif" font-size="4.2" lengthAdjust="spacing" textLength="24.6" x="254.4" y="227.4322">shootNum:int</text><rect fill="none" height="1.8" style="stroke:#C82930;stroke-width:0.3;" width="1.8" x="250.8" y="230.8295"/><text fill="#000000" font-family="sans-serif" font-size="4.2" lengthAdjust="spacing" textLength="17.1" x="254.4" y="233.0186">power:int</text><rect fill="none" height="1.8" style="stroke:#C82930;stroke-width:0.3;" width="1.8" x="250.8" y="236.4158"/><text fill="#000000" font-family="sans-serif" font-size="4.2" lengthAdjust="spacing" textLength="17.4" x="254.4" y="238.6049">direction:</text><rect fill="none" height="1.8" style="stroke:#C82930;stroke-width:0.3;" width="1.8" x="250.8" y="242.0021"/><text fill="#000000" font-family="sans-serif" font-size="4.2" lengthAdjust="spacing" text-decoration="underline" textLength="42.3" x="254.4" y="244.1912">myaircraft:HeroAircraft</text><line style="stroke:#181818;stroke-width:0.15;" x1="248.7" x2="387.3" y1="246.4453" y2="246.4453"/><rect fill="#F24D5C" height="1.8" style="stroke:#C82930;stroke-width:0.3;" width="1.8" x="250.8" y="249.9885"/><text fill="#000000" font-family="sans-serif" font-size="4.2" lengthAdjust="spacing" textLength="131.4" x="254.4" y="252.1775">HeroAircraft(int locationX, int locationY, int speedX, int speedY, int hp)</text><ellipse cx="251.7" cy="256.4748" fill="#84BE84" rx="0.9" ry="0.9" style="stroke:#038048;stroke-width:0.3;"/><text fill="#000000" font-family="sans-serif" font-size="4.2" lengthAdjust="spacing" textLength="26.1" x="254.4" y="257.7639">forward():void</text><ellipse cx="251.7" cy="262.0611" fill="#84BE84" rx="0.9" ry="0.9" style="stroke:#038048;stroke-width:0.3;"/><text fill="#000000" font-family="sans-serif" font-size="4.2" lengthAdjust="spacing" textLength="46.2" x="254.4" y="263.3502">shoot():List&lt;BaseBullet&gt;</text><ellipse cx="251.7" cy="267.6475" fill="#84BE84" rx="0.9" ry="0.9" style="stroke:#038048;stroke-width:0.3;"/><text fill="#000000" font-family="sans-serif" font-size="4.2" lengthAdjust="spacing" text-decoration="underline" textLength="55.2" x="254.4" y="268.9365">getHeroAircraft():HeroAircraft</text></g><!--class MobEnemy--><g id="elem_MobEnemy"><rect codeLine="56" fill="#F1F1F1" height="31.159" id="MobEnemy" rx="0.75" ry="0.75" style="stroke:#181818;stroke-width:0.15;" width="137.7" x="402.75" y="291.9"/><ellipse cx="459.825" cy="296.7" fill="#ADD1B2" rx="3.3" ry="3.3" style="stroke:#181818;stroke-width:0.3;"/><path d="M459.6281,298.4578 Q459.0328,298.4578 458.6813,298.0172 Q458.3344,297.5719 458.3344,296.6484 Q458.3344,295.8656 458.7,295.3406 Q459.0703,294.8156 459.7078,294.8156 Q459.8578,294.8156 460.0172,294.8578 Q460.1484,294.9141 460.2281,294.9141 Q460.2938,294.9141 460.3219,294.9 Q460.3547,294.8859 460.4906,294.7078 L460.7203,295.8281 L460.4531,295.9078 Q460.3172,295.4719 460.1344,295.2938 Q459.9563,295.1109 459.6703,295.1109 Q459.3047,295.1109 459.0891,295.5422 Q458.8734,295.9688 458.8734,296.625 Q458.8734,297.3469 459.0563,297.7359 Q459.2438,298.1203 459.6516,298.1203 Q459.9375,298.1203 460.1438,297.9141 Q460.35,297.7031 460.4484,297.2531 L460.7203,297.375 Q460.5984,297.8859 460.3078,298.1719 Q460.0219,298.4578 459.6281,298.4578 Z " fill="#000000"/><text fill="#000000" font-family="sans-serif" font-size="4.2" lengthAdjust="spacing" textLength="21" x="465.975" y="298.4391">MobEnemy</text><line style="stroke:#181818;stroke-width:0.15;" x1="403.05" x2="540.15" y1="301.5" y2="301.5"/><line style="stroke:#181818;stroke-width:0.15;" x1="403.05" x2="540.15" y1="303.9" y2="303.9"/><ellipse cx="406.05" cy="308.3432" fill="#84BE84" rx="0.9" ry="0.9" style="stroke:#038048;stroke-width:0.3;"/><text fill="#000000" font-family="sans-serif" font-size="4.2" lengthAdjust="spacing" textLength="129.9" x="408.75" y="309.6322">MobEnemy(int locationX, int locationY, int speedX, int speedY, int hp)</text><ellipse cx="406.05" cy="313.9295" fill="#84BE84" rx="0.9" ry="0.9" style="stroke:#038048;stroke-width:0.3;"/><text fill="#000000" font-family="sans-serif" font-size="4.2" lengthAdjust="spacing" textLength="26.1" x="408.75" y="315.2186">forward():void</text><ellipse cx="406.05" cy="319.5158" fill="#84BE84" rx="0.9" ry="0.9" style="stroke:#038048;stroke-width:0.3;"/><text fill="#000000" font-family="sans-serif" font-size="4.2" lengthAdjust="spacing" textLength="46.2" x="408.75" y="320.8049">shoot():List&lt;BaseBullet&gt;</text></g><!--class EliteEnemy--><g id="elem_EliteEnemy"><rect codeLine="63" fill="#F1F1F1" height="36.7453" id="EliteEnemy" rx="0.75" ry="0.75" style="stroke:#181818;stroke-width:0.15;" width="137.7" x="217.05" y="289.2"/><ellipse cx="274.125" cy="294" fill="#ADD1B2" rx="3.3" ry="3.3" style="stroke:#181818;stroke-width:0.3;"/><path d="M273.9281,295.7578 Q273.3328,295.7578 272.9813,295.3172 Q272.6344,294.8719 272.6344,293.9484 Q272.6344,293.1656 273,292.6406 Q273.3703,292.1156 274.0078,292.1156 Q274.1578,292.1156 274.3172,292.1578 Q274.4484,292.2141 274.5281,292.2141 Q274.5938,292.2141 274.6219,292.2 Q274.6547,292.1859 274.7906,292.0078 L275.0203,293.1281 L274.7531,293.2078 Q274.6172,292.7719 274.4344,292.5938 Q274.2562,292.4109 273.9703,292.4109 Q273.6047,292.4109 273.3891,292.8422 Q273.1734,293.2688 273.1734,293.925 Q273.1734,294.6469 273.3563,295.0359 Q273.5438,295.4203 273.9516,295.4203 Q274.2375,295.4203 274.4437,295.2141 Q274.65,295.0031 274.7484,294.5531 L275.0203,294.675 Q274.8984,295.1859 274.6078,295.4719 Q274.3219,295.7578 273.9281,295.7578 Z " fill="#000000"/><text fill="#000000" font-family="sans-serif" font-size="4.2" lengthAdjust="spacing" textLength="21" x="280.275" y="295.7391">EliteEnemy</text><line style="stroke:#181818;stroke-width:0.15;" x1="217.35" x2="354.45" y1="298.8" y2="298.8"/><line style="stroke:#181818;stroke-width:0.15;" x1="217.35" x2="354.45" y1="301.2" y2="301.2"/><ellipse cx="220.35" cy="305.6432" fill="#84BE84" rx="0.9" ry="0.9" style="stroke:#038048;stroke-width:0.3;"/><text fill="#000000" font-family="sans-serif" font-size="4.2" lengthAdjust="spacing" textLength="129.9" x="223.05" y="306.9322">EliteEnemy(int locationX, int locationY, int speedX, int speedY, int hp)</text><ellipse cx="220.35" cy="311.2295" fill="#84BE84" rx="0.9" ry="0.9" style="stroke:#038048;stroke-width:0.3;"/><text fill="#000000" font-family="sans-serif" font-size="4.2" lengthAdjust="spacing" textLength="26.1" x="223.05" y="312.5186">forward():void</text><ellipse cx="220.35" cy="316.8158" fill="#84BE84" rx="0.9" ry="0.9" style="stroke:#038048;stroke-width:0.3;"/><text fill="#000000" font-family="sans-serif" font-size="4.2" lengthAdjust="spacing" textLength="46.2" x="223.05" y="318.1049">shoot():List&lt;BaseBullet&gt;</text><ellipse cx="220.35" cy="322.4021" fill="#84BE84" rx="0.9" ry="0.9" style="stroke:#038048;stroke-width:0.3;"/><text fill="#000000" font-family="sans-serif" font-size="4.2" lengthAdjust="spacing" textLength="26.4" x="223.05" y="323.6912">dropProp():int</text></g><!--class EnemyAircraftCreator--><g id="elem_EnemyAircraftCreator"><rect codeLine="73" fill="#F1F1F1" height="19.9863" id="EnemyAircraftCreator" rx="0.75" ry="0.75" style="stroke:#181818;stroke-width:0.15;" width="66.9" x="436.95" y="160.05"/><ellipse cx="448.875" cy="164.85" fill="#B4A7E5" rx="3.3" ry="3.3" style="stroke:#181818;stroke-width:0.3;"/><path d="M447.8531,163.2844 L447.8531,163.0031 L449.6063,163.0031 L449.6063,163.2844 L449.0672,163.2844 Q449.0156,163.2844 448.9922,163.3031 Q448.9688,163.3219 448.9688,163.3641 L448.9688,166.2094 Q448.9688,166.2516 448.9922,166.2703 Q449.0156,166.2891 449.0672,166.2891 L449.6063,166.2891 L449.6063,166.5703 L447.8531,166.5703 L447.8531,166.2891 L448.3922,166.2891 Q448.4578,166.2891 448.4719,166.275 Q448.4906,166.2563 448.4906,166.2094 L448.4906,163.3641 Q448.4906,163.3172 448.4719,163.3031 Q448.4578,163.2844 448.3922,163.2844 L447.8531,163.2844 Z " fill="#000000"/><text fill="#000000" font-family="sans-serif" font-size="4.2" font-style="italic" lengthAdjust="spacing" textLength="40.8" x="454.725" y="166.5891">EnemyAircraftCreator</text><line style="stroke:#181818;stroke-width:0.15;" x1="437.25" x2="503.55" y1="169.65" y2="169.65"/><line style="stroke:#181818;stroke-width:0.15;" x1="437.25" x2="503.55" y1="172.05" y2="172.05"/><ellipse cx="440.25" cy="176.4932" fill="#84BE84" rx="0.9" ry="0.9" style="stroke:#038048;stroke-width:0.3;"/><text fill="#000000" font-family="sans-serif" font-size="4.2" lengthAdjust="spacing" textLength="59.1" x="442.95" y="177.7822">Create():AbstractEnemyAircraft</text></g><!--class MobAircraftCreator--><g id="elem_MobAircraftCreator"><rect codeLine="77" fill="#F1F1F1" height="19.9863" id="MobAircraftCreator" rx="0.75" ry="0.75" style="stroke:#181818;stroke-width:0.15;" width="66.9" x="475.65" y="231.6"/><ellipse cx="489.825" cy="236.4" fill="#ADD1B2" rx="3.3" ry="3.3" style="stroke:#181818;stroke-width:0.3;"/><path d="M489.6281,238.1578 Q489.0328,238.1578 488.6813,237.7172 Q488.3344,237.2719 488.3344,236.3484 Q488.3344,235.5656 488.7,235.0406 Q489.0703,234.5156 489.7078,234.5156 Q489.8578,234.5156 490.0172,234.5578 Q490.1484,234.6141 490.2281,234.6141 Q490.2938,234.6141 490.3219,234.6 Q490.3547,234.5859 490.4906,234.4078 L490.7203,235.5281 L490.4531,235.6078 Q490.3172,235.1719 490.1344,234.9937 Q489.9562,234.8109 489.6703,234.8109 Q489.3047,234.8109 489.0891,235.2422 Q488.8734,235.6688 488.8734,236.325 Q488.8734,237.0469 489.0563,237.4359 Q489.2438,237.8203 489.6516,237.8203 Q489.9375,237.8203 490.1437,237.6141 Q490.35,237.4031 490.4484,236.9531 L490.7203,237.075 Q490.5984,237.5859 490.3078,237.8719 Q490.0219,238.1578 489.6281,238.1578 Z " fill="#000000"/><text fill="#000000" font-family="sans-serif" font-size="4.2" lengthAdjust="spacing" textLength="36" x="495.975" y="238.1391">MobAircraftCreator</text><line style="stroke:#181818;stroke-width:0.15;" x1="475.95" x2="542.25" y1="241.2" y2="241.2"/><line style="stroke:#181818;stroke-width:0.15;" x1="475.95" x2="542.25" y1="243.6" y2="243.6"/><ellipse cx="478.95" cy="248.0432" fill="#84BE84" rx="0.9" ry="0.9" style="stroke:#038048;stroke-width:0.3;"/><text fill="#000000" font-family="sans-serif" font-size="4.2" lengthAdjust="spacing" textLength="59.1" x="481.65" y="249.3322">Create():AbstractEnemyAircraft</text></g><!--class EliteAircraftCreator--><g id="elem_EliteAircraftCreator"><rect codeLine="82" fill="#F1F1F1" height="19.9863" id="EliteAircraftCreator" rx="0.75" ry="0.75" style="stroke:#181818;stroke-width:0.15;" width="66.9" x="398.25" y="231.6"/><ellipse cx="412.425" cy="236.4" fill="#ADD1B2" rx="3.3" ry="3.3" style="stroke:#181818;stroke-width:0.3;"/><path d="M412.2281,238.1578 Q411.6328,238.1578 411.2813,237.7172 Q410.9344,237.2719 410.9344,236.3484 Q410.9344,235.5656 411.3,235.0406 Q411.6703,234.5156 412.3078,234.5156 Q412.4578,234.5156 412.6172,234.5578 Q412.7484,234.6141 412.8281,234.6141 Q412.8938,234.6141 412.9219,234.6 Q412.9547,234.5859 413.0906,234.4078 L413.3203,235.5281 L413.0531,235.6078 Q412.9172,235.1719 412.7344,234.9937 Q412.5563,234.8109 412.2703,234.8109 Q411.9047,234.8109 411.6891,235.2422 Q411.4734,235.6688 411.4734,236.325 Q411.4734,237.0469 411.6563,237.4359 Q411.8438,237.8203 412.2516,237.8203 Q412.5375,237.8203 412.7438,237.6141 Q412.95,237.4031 413.0484,236.9531 L413.3203,237.075 Q413.1984,237.5859 412.9078,237.8719 Q412.6219,238.1578 412.2281,238.1578 Z " fill="#000000"/><text fill="#000000" font-family="sans-serif" font-size="4.2" lengthAdjust="spacing" textLength="36" x="418.575" y="238.1391">EliteAircraftCreator</text><line style="stroke:#181818;stroke-width:0.15;" x1="398.55" x2="464.85" y1="241.2" y2="241.2"/><line style="stroke:#181818;stroke-width:0.15;" x1="398.55" x2="464.85" y1="243.6" y2="243.6"/><ellipse cx="401.55" cy="248.0432" fill="#84BE84" rx="0.9" ry="0.9" style="stroke:#038048;stroke-width:0.3;"/><text fill="#000000" font-family="sans-serif" font-size="4.2" lengthAdjust="spacing" textLength="59.1" x="404.25" y="249.3322">Create():AbstractEnemyAircraft</text></g><!--class BaseBullet--><g id="elem_BaseBullet"><rect codeLine="93" fill="#F1F1F1" height="36.7453" id="BaseBullet" rx="0.75" ry="0.75" style="stroke:#181818;stroke-width:0.15;" width="143.4" x="62.4" y="151.8"/><ellipse cx="122.775" cy="156.6" fill="#A9DCDF" rx="3.3" ry="3.3" style="stroke:#181818;stroke-width:0.3;"/><path d="M122.9016,156.7453 L122.1328,156.7453 L121.9734,157.4344 Q121.9547,157.5328 121.9547,157.5797 Q121.9547,157.6453 121.9688,157.6922 Q121.9875,157.7391 122.0719,157.7391 L122.2125,157.7391 L122.2125,158.0203 L121.3172,158.0203 L121.3172,157.7391 L121.4531,157.7391 Q121.5047,157.7391 121.5422,157.7109 Q121.5797,157.6781 121.5938,157.5891 L122.3859,154.4906 L122.8078,154.35 L123.5813,157.5797 Q123.6141,157.6734 123.6516,157.7062 Q123.6938,157.7391 123.7453,157.7391 L123.8859,157.7391 L123.8859,158.0203 L122.8687,158.0203 L122.8687,157.7391 L123.0281,157.7391 Q123.0938,157.7391 123.0984,157.725 Q123.1078,157.7062 123.1078,157.6828 Q123.1078,157.6172 123.0938,157.5609 L122.9016,156.7453 Z M121.5328,157.8984 L121.5328,157.8984 Z M121.7344,157.8984 L121.7344,157.8984 Z M123.15,157.8984 L123.15,157.8984 Z M123.4875,157.8984 L123.4875,157.8984 Z M122.5313,154.9172 L122.55,154.9172 L122.2172,156.4641 L122.8453,156.4641 L122.5313,154.9172 Z " fill="#000000"/><text fill="#000000" font-family="sans-serif" font-size="4.2" font-style="italic" lengthAdjust="spacing" textLength="20.1" x="128.925" y="158.3391">BaseBullet</text><line style="stroke:#181818;stroke-width:0.15;" x1="62.7" x2="205.5" y1="161.4" y2="161.4"/><rect fill="none" height="1.8" style="stroke:#C82930;stroke-width:0.3;" width="1.8" x="64.8" y="164.9432"/><text fill="#000000" font-family="sans-serif" font-size="4.2" lengthAdjust="spacing" textLength="17.1" x="68.4" y="167.1322">power:int</text><line style="stroke:#181818;stroke-width:0.15;" x1="62.7" x2="205.5" y1="169.3863" y2="169.3863"/><ellipse cx="65.7" cy="173.8295" fill="#84BE84" rx="0.9" ry="0.9" style="stroke:#038048;stroke-width:0.3;"/><text fill="#000000" font-family="sans-serif" font-size="4.2" lengthAdjust="spacing" textLength="135.6" x="68.4" y="175.1186">BaseBullet(int locationX, int locationY, int speedX, int speedY, int power)</text><ellipse cx="65.7" cy="179.4158" fill="#84BE84" rx="0.9" ry="0.9" style="stroke:#038048;stroke-width:0.3;"/><text fill="#000000" font-family="sans-serif" font-size="4.2" lengthAdjust="spacing" textLength="26.1" x="68.4" y="180.7049">forward():void</text><ellipse cx="65.7" cy="185.0021" fill="#84BE84" rx="0.9" ry="0.9" style="stroke:#038048;stroke-width:0.3;"/><text fill="#000000" font-family="sans-serif" font-size="4.2" lengthAdjust="spacing" textLength="26.4" x="68.4" y="186.2912">getPower():int</text></g><!--class HeroBullet--><g id="elem_HeroBullet"><rect codeLine="101" fill="#F1F1F1" height="25.5727" id="HeroBullet" rx="0.75" ry="0.75" style="stroke:#181818;stroke-width:0.15;" width="78.3" x="94.95" y="228.9"/><ellipse cx="123.075" cy="233.7" fill="#ADD1B2" rx="3.3" ry="3.3" style="stroke:#181818;stroke-width:0.3;"/><path d="M122.8781,235.4578 Q122.2828,235.4578 121.9312,235.0172 Q121.5844,234.5719 121.5844,233.6484 Q121.5844,232.8656 121.95,232.3406 Q122.3203,231.8156 122.9578,231.8156 Q123.1078,231.8156 123.2672,231.8578 Q123.3984,231.9141 123.4781,231.9141 Q123.5437,231.9141 123.5719,231.9 Q123.6047,231.8859 123.7406,231.7078 L123.9703,232.8281 L123.7031,232.9078 Q123.5672,232.4719 123.3844,232.2938 Q123.2063,232.1109 122.9203,232.1109 Q122.5547,232.1109 122.3391,232.5422 Q122.1234,232.9688 122.1234,233.625 Q122.1234,234.3469 122.3062,234.7359 Q122.4937,235.1203 122.9016,235.1203 Q123.1875,235.1203 123.3938,234.9141 Q123.6,234.7031 123.6984,234.2531 L123.9703,234.375 Q123.8484,234.8859 123.5578,235.1719 Q123.2719,235.4578 122.8781,235.4578 Z " fill="#000000"/><text fill="#000000" font-family="sans-serif" font-size="4.2" lengthAdjust="spacing" textLength="19.5" x="129.225" y="235.4391">HeroBullet</text><line style="stroke:#181818;stroke-width:0.15;" x1="95.25" x2="172.95" y1="238.5" y2="238.5"/><line style="stroke:#181818;stroke-width:0.15;" x1="95.25" x2="172.95" y1="240.9" y2="240.9"/><ellipse cx="98.25" cy="245.3432" fill="#84BE84" rx="0.9" ry="0.9" style="stroke:#038048;stroke-width:0.3;"/><text fill="#000000" font-family="sans-serif" font-size="4.2" lengthAdjust="spacing" textLength="70.5" x="100.95" y="246.6322">HeroBullet(int locationX, int locationY,</text><text fill="#000000" font-family="sans-serif" font-size="4.2" lengthAdjust="spacing" textLength="63.3" x="100.95" y="252.2186">int speedX, int speedY, int power)</text></g><!--class EnemyBullet--><g id="elem_EnemyBullet"><rect codeLine="106" fill="#F1F1F1" height="25.5727" id="EnemyBullet" rx="0.75" ry="0.75" style="stroke:#181818;stroke-width:0.15;" width="82.2" x="2.1" y="228.9"/><ellipse cx="30.225" cy="233.7" fill="#ADD1B2" rx="3.3" ry="3.3" style="stroke:#181818;stroke-width:0.3;"/><path d="M30.0281,235.4578 Q29.4328,235.4578 29.0812,235.0172 Q28.7344,234.5719 28.7344,233.6484 Q28.7344,232.8656 29.1,232.3406 Q29.4703,231.8156 30.1078,231.8156 Q30.2578,231.8156 30.4172,231.8578 Q30.5484,231.9141 30.6281,231.9141 Q30.6937,231.9141 30.7219,231.9 Q30.7547,231.8859 30.8906,231.7078 L31.1203,232.8281 L30.8531,232.9078 Q30.7172,232.4719 30.5344,232.2938 Q30.3563,232.1109 30.0703,232.1109 Q29.7047,232.1109 29.4891,232.5422 Q29.2734,232.9688 29.2734,233.625 Q29.2734,234.3469 29.4562,234.7359 Q29.6437,235.1203 30.0516,235.1203 Q30.3375,235.1203 30.5438,234.9141 Q30.75,234.7031 30.8484,234.2531 L31.1203,234.375 Q30.9984,234.8859 30.7078,235.1719 Q30.4219,235.4578 30.0281,235.4578 Z " fill="#000000"/><text fill="#000000" font-family="sans-serif" font-size="4.2" lengthAdjust="spacing" textLength="23.4" x="36.375" y="235.4391">EnemyBullet</text><line style="stroke:#181818;stroke-width:0.15;" x1="2.4" x2="84" y1="238.5" y2="238.5"/><line style="stroke:#181818;stroke-width:0.15;" x1="2.4" x2="84" y1="240.9" y2="240.9"/><ellipse cx="5.4" cy="245.3432" fill="#84BE84" rx="0.9" ry="0.9" style="stroke:#038048;stroke-width:0.3;"/><text fill="#000000" font-family="sans-serif" font-size="4.2" lengthAdjust="spacing" textLength="74.4" x="8.1" y="246.6322">EnemyBullet(int locationX, int locationY,</text><text fill="#000000" font-family="sans-serif" font-size="4.2" lengthAdjust="spacing" textLength="63.3" x="8.1" y="252.2186">int speedX, int speedY, int power)</text></g><!--class BaseProp--><g id="elem_BaseProp"><rect codeLine="114" fill="#F1F1F1" height="25.5727" id="BaseProp" rx="0.75" ry="0.75" style="stroke:#181818;stroke-width:0.15;" width="141.9" x="646.95" y="157.35"/><ellipse cx="707.325" cy="162.15" fill="#A9DCDF" rx="3.3" ry="3.3" style="stroke:#181818;stroke-width:0.3;"/><path d="M707.4516,162.2953 L706.6828,162.2953 L706.5234,162.9844 Q706.5047,163.0828 706.5047,163.1297 Q706.5047,163.1953 706.5188,163.2422 Q706.5375,163.2891 706.6219,163.2891 L706.7625,163.2891 L706.7625,163.5703 L705.8672,163.5703 L705.8672,163.2891 L706.0031,163.2891 Q706.0547,163.2891 706.0922,163.2609 Q706.1297,163.2281 706.1438,163.1391 L706.9359,160.0406 L707.3578,159.9 L708.1313,163.1297 Q708.1641,163.2234 708.2016,163.2563 Q708.2438,163.2891 708.2953,163.2891 L708.4359,163.2891 L708.4359,163.5703 L707.4187,163.5703 L707.4187,163.2891 L707.5781,163.2891 Q707.6438,163.2891 707.6484,163.275 Q707.6578,163.2563 707.6578,163.2328 Q707.6578,163.1672 707.6438,163.1109 L707.4516,162.2953 Z M706.0828,163.4484 L706.0828,163.4484 Z M706.2844,163.4484 L706.2844,163.4484 Z M707.7,163.4484 L707.7,163.4484 Z M708.0375,163.4484 L708.0375,163.4484 Z M707.0813,160.4672 L707.1,160.4672 L706.7672,162.0141 L707.3953,162.0141 L707.0813,160.4672 Z " fill="#000000"/><text fill="#000000" font-family="sans-serif" font-size="4.2" font-style="italic" lengthAdjust="spacing" textLength="18.6" x="713.475" y="163.8891">BaseProp</text><line style="stroke:#181818;stroke-width:0.15;" x1="647.25" x2="788.55" y1="166.95" y2="166.95"/><line style="stroke:#181818;stroke-width:0.15;" x1="647.25" x2="788.55" y1="169.35" y2="169.35"/><ellipse cx="650.25" cy="173.7932" fill="#84BE84" rx="0.9" ry="0.9" style="stroke:#038048;stroke-width:0.3;"/><text fill="#000000" font-family="sans-serif" font-size="4.2" lengthAdjust="spacing" textLength="134.1" x="652.95" y="175.0822">BaseProp(int locationX, int locationY, int speedX, int speedY, int power)</text><ellipse cx="650.25" cy="179.3795" fill="#84BE84" rx="0.9" ry="0.9" style="stroke:#038048;stroke-width:0.3;"/><text fill="#000000" font-family="sans-serif" font-size="4.2" lengthAdjust="spacing" textLength="26.1" x="652.95" y="180.6686">forward():void</text></g><!--class BloodProp--><g id="elem_BloodProp"><rect codeLine="120" fill="#F1F1F1" height="31.159" id="BloodProp" rx="0.75" ry="0.75" style="stroke:#181818;stroke-width:0.15;" width="122.4" x="553.2" y="226.05"/><ellipse cx="603.225" cy="230.85" fill="#ADD1B2" rx="3.3" ry="3.3" style="stroke:#181818;stroke-width:0.3;"/><path d="M603.0281,232.6078 Q602.4328,232.6078 602.0813,232.1672 Q601.7344,231.7219 601.7344,230.7984 Q601.7344,230.0156 602.1,229.4906 Q602.4703,228.9656 603.1078,228.9656 Q603.2578,228.9656 603.4172,229.0078 Q603.5484,229.0641 603.6281,229.0641 Q603.6938,229.0641 603.7219,229.05 Q603.7547,229.0359 603.8906,228.8578 L604.1203,229.9781 L603.8531,230.0578 Q603.7172,229.6219 603.5344,229.4438 Q603.3562,229.2609 603.0703,229.2609 Q602.7047,229.2609 602.4891,229.6922 Q602.2734,230.1188 602.2734,230.775 Q602.2734,231.4969 602.4563,231.8859 Q602.6438,232.2703 603.0516,232.2703 Q603.3375,232.2703 603.5437,232.0641 Q603.75,231.8531 603.8484,231.4031 L604.1203,231.525 Q603.9984,232.0359 603.7078,232.3219 Q603.4219,232.6078 603.0281,232.6078 Z " fill="#000000"/><text fill="#000000" font-family="sans-serif" font-size="4.2" lengthAdjust="spacing" textLength="19.8" x="609.375" y="232.5891">BloodProp</text><line style="stroke:#181818;stroke-width:0.15;" x1="553.5" x2="675.3" y1="235.65" y2="235.65"/><rect fill="none" height="1.8" style="stroke:#C82930;stroke-width:0.3;" width="1.8" x="555.6" y="239.1932"/><text fill="#000000" font-family="sans-serif" font-size="4.2" lengthAdjust="spacing" textLength="16.5" x="559.2" y="241.3822">Blood:int</text><line style="stroke:#181818;stroke-width:0.15;" x1="553.5" x2="675.3" y1="243.6363" y2="243.6363"/><ellipse cx="556.5" cy="248.0795" fill="#84BE84" rx="0.9" ry="0.9" style="stroke:#038048;stroke-width:0.3;"/><text fill="#000000" font-family="sans-serif" font-size="4.2" lengthAdjust="spacing" textLength="114.6" x="559.2" y="249.3686">BloodProp(int locationX, int locationY,int speedX, int speedY)</text><ellipse cx="556.5" cy="253.6658" fill="#84BE84" rx="0.9" ry="0.9" style="stroke:#038048;stroke-width:0.3;"/><text fill="#000000" font-family="sans-serif" font-size="4.2" lengthAdjust="spacing" textLength="27" x="559.2" y="254.9549">AddBlood():int</text></g><!--class BombProp--><g id="elem_BombProp"><rect codeLine="126" fill="#F1F1F1" height="31.159" id="BombProp" rx="0.75" ry="0.75" style="stroke:#181818;stroke-width:0.15;" width="122.4" x="686.1" y="226.05"/><ellipse cx="736.125" cy="230.85" fill="#ADD1B2" rx="3.3" ry="3.3" style="stroke:#181818;stroke-width:0.3;"/><path d="M735.9281,232.6078 Q735.3328,232.6078 734.9812,232.1672 Q734.6344,231.7219 734.6344,230.7984 Q734.6344,230.0156 735,229.4906 Q735.3703,228.9656 736.0078,228.9656 Q736.1578,228.9656 736.3172,229.0078 Q736.4484,229.0641 736.5281,229.0641 Q736.5938,229.0641 736.6219,229.05 Q736.6547,229.0359 736.7906,228.8578 L737.0203,229.9781 L736.7531,230.0578 Q736.6172,229.6219 736.4344,229.4438 Q736.2563,229.2609 735.9703,229.2609 Q735.6047,229.2609 735.3891,229.6922 Q735.1734,230.1188 735.1734,230.775 Q735.1734,231.4969 735.3562,231.8859 Q735.5437,232.2703 735.9516,232.2703 Q736.2375,232.2703 736.4438,232.0641 Q736.65,231.8531 736.7484,231.4031 L737.0203,231.525 Q736.8984,232.0359 736.6078,232.3219 Q736.3219,232.6078 735.9281,232.6078 Z " fill="#000000"/><text fill="#000000" font-family="sans-serif" font-size="4.2" lengthAdjust="spacing" textLength="19.8" x="742.275" y="232.5891">BombProp</text><line style="stroke:#181818;stroke-width:0.15;" x1="686.4" x2="808.2" y1="235.65" y2="235.65"/><rect fill="none" height="1.8" style="stroke:#C82930;stroke-width:0.3;" width="1.8" x="688.5" y="239.1932"/><text fill="#000000" font-family="sans-serif" font-size="4.2" lengthAdjust="spacing" textLength="17.1" x="692.1" y="241.3822">power:int</text><line style="stroke:#181818;stroke-width:0.15;" x1="686.4" x2="808.2" y1="243.6363" y2="243.6363"/><ellipse cx="689.4" cy="248.0795" fill="#84BE84" rx="0.9" ry="0.9" style="stroke:#038048;stroke-width:0.3;"/><text fill="#000000" font-family="sans-serif" font-size="4.2" lengthAdjust="spacing" textLength="114.6" x="692.1" y="249.3686">BombProp(int locationX, int locationY,int speedX, int speedY)</text><ellipse cx="689.4" cy="253.6658" fill="#84BE84" rx="0.9" ry="0.9" style="stroke:#038048;stroke-width:0.3;"/><text fill="#000000" font-family="sans-serif" font-size="4.2" lengthAdjust="spacing" textLength="19.5" x="692.1" y="254.9549">Bomb():int</text></g><!--class BulletProp--><g id="elem_BulletProp"><rect codeLine="132" fill="#F1F1F1" height="31.159" id="BulletProp" rx="0.75" ry="0.75" style="stroke:#181818;stroke-width:0.15;" width="122.1" x="819.15" y="226.05"/><ellipse cx="869.175" cy="230.85" fill="#ADD1B2" rx="3.3" ry="3.3" style="stroke:#181818;stroke-width:0.3;"/><path d="M868.9781,232.6078 Q868.3828,232.6078 868.0313,232.1672 Q867.6844,231.7219 867.6844,230.7984 Q867.6844,230.0156 868.05,229.4906 Q868.4203,228.9656 869.0578,228.9656 Q869.2078,228.9656 869.3672,229.0078 Q869.4984,229.0641 869.5781,229.0641 Q869.6438,229.0641 869.6719,229.05 Q869.7047,229.0359 869.8406,228.8578 L870.0703,229.9781 L869.8031,230.0578 Q869.6672,229.6219 869.4844,229.4438 Q869.3063,229.2609 869.0203,229.2609 Q868.6547,229.2609 868.4391,229.6922 Q868.2234,230.1188 868.2234,230.775 Q868.2234,231.4969 868.4063,231.8859 Q868.5938,232.2703 869.0016,232.2703 Q869.2875,232.2703 869.4938,232.0641 Q869.7,231.8531 869.7984,231.4031 L870.0703,231.525 Q869.9484,232.0359 869.6578,232.3219 Q869.3719,232.6078 868.9781,232.6078 Z " fill="#000000"/><text fill="#000000" font-family="sans-serif" font-size="4.2" lengthAdjust="spacing" textLength="19.5" x="875.325" y="232.5891">BulletProp</text><line style="stroke:#181818;stroke-width:0.15;" x1="819.45" x2="940.95" y1="235.65" y2="235.65"/><rect fill="none" height="1.8" style="stroke:#C82930;stroke-width:0.3;" width="1.8" x="821.55" y="239.1932"/><text fill="#000000" font-family="sans-serif" font-size="4.2" lengthAdjust="spacing" textLength="20.1" x="825.15" y="241.3822">number:int</text><line style="stroke:#181818;stroke-width:0.15;" x1="819.45" x2="940.95" y1="243.6363" y2="243.6363"/><ellipse cx="822.45" cy="248.0795" fill="#84BE84" rx="0.9" ry="0.9" style="stroke:#038048;stroke-width:0.3;"/><text fill="#000000" font-family="sans-serif" font-size="4.2" lengthAdjust="spacing" textLength="114.3" x="825.15" y="249.3686">BulletProp(int locationX, int locationY,int speedX, int speedY)</text><ellipse cx="822.45" cy="253.6658" fill="#84BE84" rx="0.9" ry="0.9" style="stroke:#038048;stroke-width:0.3;"/><text fill="#000000" font-family="sans-serif" font-size="4.2" lengthAdjust="spacing" textLength="26.7" x="825.15" y="254.9549">AddBullet():int</text></g><!--class PropCreator--><g id="elem_PropCreator"><rect codeLine="144" fill="#F1F1F1" height="19.9863" id="PropCreator" rx="0.75" ry="0.75" style="stroke:#181818;stroke-width:0.15;" width="43.5" x="799.65" y="55.05"/><ellipse cx="808.875" cy="59.85" fill="#B4A7E5" rx="3.3" ry="3.3" style="stroke:#181818;stroke-width:0.3;"/><path d="M807.8531,58.2844 L807.8531,58.0031 L809.6062,58.0031 L809.6062,58.2844 L809.0672,58.2844 Q809.0156,58.2844 808.9922,58.3031 Q808.9688,58.3219 808.9688,58.3641 L808.9688,61.2094 Q808.9688,61.2516 808.9922,61.2703 Q809.0156,61.2891 809.0672,61.2891 L809.6062,61.2891 L809.6062,61.5703 L807.8531,61.5703 L807.8531,61.2891 L808.3922,61.2891 Q808.4578,61.2891 808.4719,61.275 Q808.4906,61.2562 808.4906,61.2094 L808.4906,58.3641 Q808.4906,58.3172 808.4719,58.3031 Q808.4578,58.2844 808.3922,58.2844 L807.8531,58.2844 Z " fill="#000000"/><text fill="#000000" font-family="sans-serif" font-size="4.2" font-style="italic" lengthAdjust="spacing" textLength="23.4" x="814.125" y="61.5891">PropCreator</text><line style="stroke:#181818;stroke-width:0.15;" x1="799.95" x2="842.85" y1="64.65" y2="64.65"/><line style="stroke:#181818;stroke-width:0.15;" x1="799.95" x2="842.85" y1="67.05" y2="67.05"/><ellipse cx="802.95" cy="71.4932" fill="#84BE84" rx="0.9" ry="0.9" style="stroke:#038048;stroke-width:0.3;"/><text fill="#000000" font-family="sans-serif" font-size="4.2" lengthAdjust="spacing" textLength="35.7" x="805.65" y="72.7822">Create():BaseProp</text></g><!--class BloodPropCreator--><g id="elem_BloodPropCreator"><rect codeLine="148" fill="#F1F1F1" height="19.9863" id="BloodPropCreator" rx="0.75" ry="0.75" style="stroke:#181818;stroke-width:0.15;" width="43.8" x="592.5" y="160.05"/><ellipse cx="597" cy="164.85" fill="#ADD1B2" rx="3.3" ry="3.3" style="stroke:#181818;stroke-width:0.3;"/><path d="M596.8031,166.6078 Q596.2078,166.6078 595.8562,166.1672 Q595.5094,165.7219 595.5094,164.7984 Q595.5094,164.0156 595.875,163.4906 Q596.2453,162.9656 596.8828,162.9656 Q597.0328,162.9656 597.1922,163.0078 Q597.3234,163.0641 597.4031,163.0641 Q597.4688,163.0641 597.4969,163.05 Q597.5297,163.0359 597.6656,162.8578 L597.8953,163.9781 L597.6281,164.0578 Q597.4922,163.6219 597.3094,163.4438 Q597.1313,163.2609 596.8453,163.2609 Q596.4797,163.2609 596.2641,163.6922 Q596.0484,164.1188 596.0484,164.775 Q596.0484,165.4969 596.2312,165.8859 Q596.4187,166.2703 596.8266,166.2703 Q597.1125,166.2703 597.3188,166.0641 Q597.525,165.8531 597.6234,165.4031 L597.8953,165.525 Q597.7734,166.0359 597.4828,166.3219 Q597.1969,166.6078 596.8031,166.6078 Z " fill="#000000"/><text fill="#000000" font-family="sans-serif" font-size="4.2" lengthAdjust="spacing" textLength="34.2" x="601.2" y="166.5891">BloodPropCreator</text><line style="stroke:#181818;stroke-width:0.15;" x1="592.8" x2="636" y1="169.65" y2="169.65"/><line style="stroke:#181818;stroke-width:0.15;" x1="592.8" x2="636" y1="172.05" y2="172.05"/><ellipse cx="595.8" cy="176.4932" fill="#84BE84" rx="0.9" ry="0.9" style="stroke:#038048;stroke-width:0.3;"/><text fill="#000000" font-family="sans-serif" font-size="4.2" lengthAdjust="spacing" textLength="35.7" x="598.5" y="177.7822">Create():BaseProp</text></g><!--class BombPropCreator--><g id="elem_BombPropCreator"><rect codeLine="152" fill="#F1F1F1" height="19.9863" id="BombPropCreator" rx="0.75" ry="0.75" style="stroke:#181818;stroke-width:0.15;" width="43.8" x="799.5" y="160.05"/><ellipse cx="804" cy="164.85" fill="#ADD1B2" rx="3.3" ry="3.3" style="stroke:#181818;stroke-width:0.3;"/><path d="M803.8031,166.6078 Q803.2078,166.6078 802.8562,166.1672 Q802.5094,165.7219 802.5094,164.7984 Q802.5094,164.0156 802.875,163.4906 Q803.2453,162.9656 803.8828,162.9656 Q804.0328,162.9656 804.1922,163.0078 Q804.3234,163.0641 804.4031,163.0641 Q804.4688,163.0641 804.4969,163.05 Q804.5297,163.0359 804.6656,162.8578 L804.8953,163.9781 L804.6281,164.0578 Q804.4922,163.6219 804.3094,163.4438 Q804.1313,163.2609 803.8453,163.2609 Q803.4797,163.2609 803.2641,163.6922 Q803.0484,164.1188 803.0484,164.775 Q803.0484,165.4969 803.2312,165.8859 Q803.4187,166.2703 803.8266,166.2703 Q804.1125,166.2703 804.3188,166.0641 Q804.525,165.8531 804.6234,165.4031 L804.8953,165.525 Q804.7734,166.0359 804.4828,166.3219 Q804.1969,166.6078 803.8031,166.6078 Z " fill="#000000"/><text fill="#000000" font-family="sans-serif" font-size="4.2" lengthAdjust="spacing" textLength="34.2" x="808.2" y="166.5891">BombPropCreator</text><line style="stroke:#181818;stroke-width:0.15;" x1="799.8" x2="843" y1="169.65" y2="169.65"/><line style="stroke:#181818;stroke-width:0.15;" x1="799.8" x2="843" y1="172.05" y2="172.05"/><ellipse cx="802.8" cy="176.4932" fill="#84BE84" rx="0.9" ry="0.9" style="stroke:#038048;stroke-width:0.3;"/><text fill="#000000" font-family="sans-serif" font-size="4.2" lengthAdjust="spacing" textLength="35.7" x="805.5" y="177.7822">Create():BaseProp</text></g><!--class BulletPropCreator--><g id="elem_BulletPropCreator"><rect codeLine="156" fill="#F1F1F1" height="19.9863" id="BulletPropCreator" rx="0.75" ry="0.75" style="stroke:#181818;stroke-width:0.15;" width="43.5" x="856.05" y="160.05"/><ellipse cx="860.55" cy="164.85" fill="#ADD1B2" rx="3.3" ry="3.3" style="stroke:#181818;stroke-width:0.3;"/><path d="M860.3531,166.6078 Q859.7578,166.6078 859.4063,166.1672 Q859.0594,165.7219 859.0594,164.7984 Q859.0594,164.0156 859.425,163.4906 Q859.7953,162.9656 860.4328,162.9656 Q860.5828,162.9656 860.7422,163.0078 Q860.8734,163.0641 860.9531,163.0641 Q861.0188,163.0641 861.0469,163.05 Q861.0797,163.0359 861.2156,162.8578 L861.4453,163.9781 L861.1781,164.0578 Q861.0422,163.6219 860.8594,163.4438 Q860.6813,163.2609 860.3953,163.2609 Q860.0297,163.2609 859.8141,163.6922 Q859.5984,164.1188 859.5984,164.775 Q859.5984,165.4969 859.7813,165.8859 Q859.9688,166.2703 860.3766,166.2703 Q860.6625,166.2703 860.8688,166.0641 Q861.075,165.8531 861.1734,165.4031 L861.4453,165.525 Q861.3234,166.0359 861.0328,166.3219 Q860.7469,166.6078 860.3531,166.6078 Z " fill="#000000"/><text fill="#000000" font-family="sans-serif" font-size="4.2" lengthAdjust="spacing" textLength="33.9" x="864.75" y="166.5891">BulletPropCreator</text><line style="stroke:#181818;stroke-width:0.15;" x1="856.35" x2="899.25" y1="169.65" y2="169.65"/><line style="stroke:#181818;stroke-width:0.15;" x1="856.35" x2="899.25" y1="172.05" y2="172.05"/><ellipse cx="859.35" cy="176.4932" fill="#84BE84" rx="0.9" ry="0.9" style="stroke:#038048;stroke-width:0.3;"/><text fill="#000000" font-family="sans-serif" font-size="4.2" lengthAdjust="spacing" textLength="35.7" x="862.05" y="177.7822">Create():BaseProp</text></g><!--reverse link AbstractAircraft to AbstractEnemyAircraft--><g id="link_AbstractAircraft_AbstractEnemyAircraft"><path codeLine="41" d="M262.9319,197.224 C254.7659,202.9 250.677,206.007 243,212.1 C235.323,218.193 227.166,225.642 220.995,231.495 " fill="none" id="AbstractAircraft-backto-AbstractEnemyAircraft" style="stroke:#181818;stroke-width:0.3;"/><polygon fill="none" points="267.366,194.142,261.9046,195.746,263.9593,198.7021,267.366,194.142" style="stroke:#181818;stroke-width:0.3;"/></g><!--reverse link AbstractAircraft to HeroAircraft--><g id="link_AbstractAircraft_HeroAircraft"><path codeLine="54" d="M309.4899,199.4159 C310.6599,205.1759 310.848,206.112 312.063,212.094 " fill="none" id="AbstractAircraft-backto-HeroAircraft" style="stroke:#181818;stroke-width:0.3;"/><polygon fill="none" points="308.415,194.124,307.7259,199.7742,311.2539,199.0576,308.415,194.124" style="stroke:#181818;stroke-width:0.3;"/></g><!--reverse link AbstractEnemyAircraft to MobEnemy--><g id="link_AbstractEnemyAircraft_MobEnemy"><path codeLine="61" d="M222.4416,255.7373 C228.3786,262.3433 233.475,266.649 243,271.2 C290.469,293.886 308.028,281.01 360,289.2 C373.812,291.375 388.581,293.736 402.705,296.007 " fill="none" id="AbstractEnemyAircraft-backto-MobEnemy" style="stroke:#181818;stroke-width:0.3;"/><polygon fill="none" points="218.832,251.721,221.1028,256.9405,223.7804,254.5341,218.832,251.721" style="stroke:#181818;stroke-width:0.3;"/></g><!--reverse link AbstractEnemyAircraft to EliteEnemy--><g id="link_AbstractEnemyAircraft_EliteEnemy"><path codeLine="69" d="M225.4726,255.4708 C231.6826,261.1948 235.737,264.846 243,271.2 C249.771,277.122 257.247,283.464 264.039,289.149 " fill="none" id="AbstractEnemyAircraft-backto-EliteEnemy" style="stroke:#181818;stroke-width:0.3;"/><polygon fill="none" points="221.502,251.811,224.2526,256.7944,226.6925,254.1473,221.502,251.811" style="stroke:#181818;stroke-width:0.3;"/></g><!--reverse link EnemyAircraftCreator to MobAircraftCreator--><g id="link_EnemyAircraftCreator_MobAircraftCreator"><path codeLine="80" d="M478.3671,185.005 C485.7591,198.562 496.395,218.058 503.766,231.567 " fill="none" id="EnemyAircraftCreator-backto-MobAircraftCreator" style="stroke:#181818;stroke-width:0.3;stroke-dasharray:7.0,7.0;"/><polygon fill="none" points="475.782,180.264,476.7867,185.8667,479.9474,184.1433,475.782,180.264" style="stroke:#181818;stroke-width:0.3;"/></g><!--reverse link EnemyAircraftCreator to EliteAircraftCreator--><g id="link_EnemyAircraftCreator_EliteAircraftCreator"><path codeLine="85" d="M462.4329,185.005 C455.0409,198.562 444.405,218.058 437.034,231.567 " fill="none" id="EnemyAircraftCreator-backto-EliteAircraftCreator" style="stroke:#181818;stroke-width:0.3;stroke-dasharray:7.0,7.0;"/><polygon fill="none" points="465.018,180.264,460.8526,184.1433,464.0133,185.8667,465.018,180.264" style="stroke:#181818;stroke-width:0.3;"/></g><!--link MobAircraftCreator to MobEnemy--><g id="link_MobAircraftCreator_MobEnemy"><path codeLine="87" d="M503.487,251.718 C497.397,262.314 488.4896,277.8082 481.3616,290.2162 " fill="none" id="MobAircraftCreator-to-MobEnemy" style="stroke:#181818;stroke-width:0.3;stroke-dasharray:7.0,7.0;"/><polygon fill="#181818" points="480.465,291.777,482.8505,290.0336,481.2122,290.4763,480.7694,288.8381,480.465,291.777" style="stroke:#181818;stroke-width:0.3;"/></g><!--link EliteAircraftCreator to EliteEnemy--><g id="link_EliteAircraftCreator_EliteEnemy"><path codeLine="88" d="M420.657,251.742 C413.181,257.979 402.849,265.86 392.7,271.2 C379.497,278.148 366.3819,283.5532 352.0899,288.5572 " fill="none" id="EliteAircraftCreator-to-EliteEnemy" style="stroke:#181818;stroke-width:0.3;stroke-dasharray:7.0,7.0;"/><polygon fill="#181818" points="350.391,289.152,353.3359,289.3924,351.8067,288.6563,352.5428,287.1272,350.391,289.152" style="stroke:#181818;stroke-width:0.3;"/></g><!--reverse link BaseBullet to HeroBullet--><g id="link_BaseBullet_HeroBullet"><path codeLine="111" d="M134.1,193.887 C134.1,206.532 134.1,217.695 134.1,228.885 " fill="none" id="BaseBullet-backto-HeroBullet" style="stroke:#181818;stroke-width:0.3;"/><polygon fill="none" points="134.1,188.487,132.3,193.887,135.9,193.887,134.1,188.487" style="stroke:#181818;stroke-width:0.3;"/></g><!--reverse link BaseBullet to EnemyBullet--><g id="link_BaseBullet_EnemyBullet"><path codeLine="112" d="M106.6709,191.8093 C90.4679,204.4543 73.509,217.695 59.172,228.885 " fill="none" id="BaseBullet-backto-EnemyBullet" style="stroke:#181818;stroke-width:0.3;"/><polygon fill="none" points="110.928,188.487,105.5635,190.3902,107.7784,193.2283,110.928,188.487" style="stroke:#181818;stroke-width:0.3;"/></g><!--reverse link BaseProp to BloodProp--><g id="link_BaseProp_BloodProp"><path codeLine="138" d="M695.1818,185.9748 C677.6558,197.9868 655.602,213.105 636.81,225.987 " fill="none" id="BaseProp-backto-BloodProp" style="stroke:#181818;stroke-width:0.3;"/><polygon fill="none" points="699.636,182.922,694.1642,184.4901,696.1994,187.4596,699.636,182.922" style="stroke:#181818;stroke-width:0.3;"/></g><!--reverse link BaseProp to BombProp--><g id="link_BaseProp_BombProp"><path codeLine="139" d="M725.1551,187.9103 C730.1351,199.9223 735.597,213.105 740.934,225.987 " fill="none" id="BaseProp-backto-BombProp" style="stroke:#181818;stroke-width:0.3;"/><polygon fill="none" points="723.087,182.922,723.4923,188.5997,726.8178,187.2209,723.087,182.922" style="stroke:#181818;stroke-width:0.3;"/></g><!--reverse link BaseProp to BulletProp--><g id="link_BaseProp_BulletProp"><path codeLine="140" d="M751.5465,185.0317 C770.5605,193.3057 791.1,202.257 813.6,212.1 C823.926,216.618 835.146,221.541 845.385,226.035 " fill="none" id="BaseProp-backto-BulletProp" style="stroke:#181818;stroke-width:0.3;"/><polygon fill="none" points="746.595,182.877,750.8283,186.6822,752.2647,183.3812,746.595,182.877" style="stroke:#181818;stroke-width:0.3;"/></g><!--reverse link PropCreator to BloodPropCreator--><g id="link_PropCreator_BloodPropCreator"><path codeLine="160" d="M794.5315,74.6266 C759.6535,87.0166 694.872,112.131 641.7,146.1 C635.46,150.087 629.172,155.433 624.204,160.041 " fill="none" id="PropCreator-backto-BloodPropCreator" style="stroke:#181818;stroke-width:0.3;stroke-dasharray:7.0,7.0;"/><polygon fill="none" points="799.62,72.819,793.929,72.9305,795.1341,76.3228,799.62,72.819" style="stroke:#181818;stroke-width:0.3;"/></g><!--reverse link PropCreator to BombPropCreator--><g id="link_PropCreator_BombPropCreator"><path codeLine="161" d="M821.4,80.622 C821.4,100.545 821.4,140.103 821.4,160.005 " fill="none" id="PropCreator-backto-BombPropCreator" style="stroke:#181818;stroke-width:0.3;stroke-dasharray:7.0,7.0;"/><polygon fill="none" points="821.4,75.222,819.6,80.622,823.2,80.622,821.4,75.222" style="stroke:#181818;stroke-width:0.3;"/></g><!--reverse link PropCreator to BulletPropCreator--><g id="link_PropCreator_BulletPropCreator"><path codeLine="162" d="M829.2733,79.9732 C840.0343,99.8962 861.756,140.103 872.508,160.005 " fill="none" id="PropCreator-backto-BulletPropCreator" style="stroke:#181818;stroke-width:0.3;stroke-dasharray:7.0,7.0;"/><polygon fill="none" points="826.707,75.222,827.6895,80.8287,830.857,79.1178,826.707,75.222" style="stroke:#181818;stroke-width:0.3;"/></g><!--link BloodPropCreator to BloodProp--><g id="link_BloodPropCreator_BloodProp"><path codeLine="164" d="M614.4,180.264 C614.4,192.108 614.4,210.3 614.4,224.175 " fill="none" id="BloodPropCreator-to-BloodProp" style="stroke:#181818;stroke-width:0.3;stroke-dasharray:7.0,7.0;"/><polygon fill="#181818" points="614.4,225.975,615.6,223.275,614.4,224.475,613.2,223.275,614.4,225.975" style="stroke:#181818;stroke-width:0.3;"/></g><!--link BombPropCreator to BombProp--><g id="link_BombPropCreator_BombProp"><path codeLine="165" d="M811.176,180.192 C798.828,192.012 779.2122,210.7952 764.6952,224.6942 " fill="none" id="BombPropCreator-to-BombProp" style="stroke:#181818;stroke-width:0.3;stroke-dasharray:7.0,7.0;"/><polygon fill="#181818" points="763.395,225.939,766.1751,224.9386,764.4785,224.9017,764.5154,223.205,763.395,225.939" style="stroke:#181818;stroke-width:0.3;"/></g><!--link BulletPropCreator to BulletProp--><g id="link_BulletPropCreator_BulletProp"><path codeLine="166" d="M878.133,180.264 C878.535,192.108 879.1489,210.301 879.6199,224.176 " fill="none" id="BulletPropCreator-to-BulletProp" style="stroke:#181818;stroke-width:0.3;stroke-dasharray:7.0,7.0;"/><polygon fill="#181818" points="879.681,225.975,880.7887,223.2358,879.6301,224.4759,878.3901,223.3173,879.681,225.975" style="stroke:#181818;stroke-width:0.3;"/></g><!--reverse link AbstractFlyingObject to AbstractAircraft--><g id="link_AbstractFlyingObject_AbstractAircraft"><path codeLine="170" d="M303.6,133.563 C303.6,139.878 303.6,140.577 303.6,146.067 " fill="none" id="AbstractFlyingObject-backto-AbstractAircraft" style="stroke:#181818;stroke-width:0.3;"/><polygon fill="none" points="303.6,128.163,301.8,133.563,305.4,133.563,303.6,128.163" style="stroke:#181818;stroke-width:0.3;"/></g><!--reverse link AbstractFlyingObject to BaseBullet--><g id="link_AbstractFlyingObject_BaseBullet"><path codeLine="171" d="M227.3653,112.3562 C203.2873,127.1882 182.358,140.076 163.413,151.743 " fill="none" id="AbstractFlyingObject-backto-BaseBullet" style="stroke:#181818;stroke-width:0.3;"/><polygon fill="none" points="231.963,109.524,226.4212,110.8236,228.3094,113.8887,231.963,109.524" style="stroke:#181818;stroke-width:0.3;"/></g><!--reverse link AbstractFlyingObject to BaseProp--><g id="link_AbstractFlyingObject_BaseProp"><path codeLine="172" d="M380.4737,82.245 C449.0897,97.596 550.137,121.092 641.4,146.1 C653.838,149.508 667.305,153.558 679.422,157.338 " fill="none" id="AbstractFlyingObject-backto-BaseProp" style="stroke:#181818;stroke-width:0.3;"/><polygon fill="none" points="375.204,81.066,380.0807,84.0015,380.8667,80.4884,375.204,81.066" style="stroke:#181818;stroke-width:0.3;"/></g><!--SRC=[nLVVQzim47wk_mf17vRG9NqtfT2CZWowhJ3OcaVPKc8DspAIqYva_jydwvSbsGcXwQWXO9tkxllqtUcIV2Y4Q7XwVTsKi1RRgfpdjBhEIyZv316uOR1A4fXnmM0kWBA3ExFyNEv8lVcU_SQvIFO9aCybA6aE1Q7rKqfg4TbMdeqt6AEdsE1xa0fkSBhOhjUOOVIbMvcT5u94uNaMc6mAuOVodx0aACqeBJ6i4sM-6YK-aL4zwO_0NwxqKbFrtbTJat1DsGjaQ39Ddob1nfWpo8l961POUukfOwV3E1OF1dU2w3OhiKyhigm2n4qV-YIvM1s2ZLMyyKET9BOgcQLnABlQ_jKf7ySibVo1jQP2LM0Id_8PreGNLh3sK6lT4IPbN7TjTN49AlXdsVZrRZoeEEHL1TNlHMCBYt3ECEHusQXqTXchBhVzK-_jQLh02qexIHu85pSB6RhObYKMjmbe3zwd-nfNE-_afoTjarW5SFDtDZkGET6mIyoeSzTeCmtnRLkvKyr0GrymyzQ8CDc-KitK6FPSI7Np5bGxQFAbVdBZvflUf4YZj- -my5fDorNrhKTe6bAMLHgNDF0oIdwbcL8Os9fPmpiSis-5eEYQlELbYT-NHE2GUczwjneXHfj7-J5tw-Y9Uhg9VAGxPckOOn2uVfANLr1cZwYMtP0RlnwjLzRNPXY3buJdyv6aGJ7U7d0iRP8CQO3v_BPlaB4evH4A7e-olfZ9VdHyN7akPpIOIdgWnoxKQ7xiF5m7UIDFOxj-xqt7wIZtKpWvC2LIXERPtWwkLxGVKQO8yPQ7FrgxxjgvRnvh-4zrSa8jIagHXppJ5hzdhCTnAiT_hDqXfFAufZ3ejCe2y4736eTpiBiSCQwgGe1SRwiiX7O-vnvSjvnbO2khcwBNFx9RPI9pJpmOkPt5pfV1t7BDrSP5ZqAEH1WwfmSueYU4U6vwRWu83ZqYGaE70O4apgfcgbU0CANUTMM8q-dje1oZVpk2tuBkI-EmgpV5Zpifr7y0]--></g></svg>